<?xml version="1.0" standalone="no"?>
<svg xmlns:xlink="http://www.w3.org/1999/xlink" id="wave" style="transform:rotate(180deg); transition: 0.3s" viewBox="0 0 1440 490" version="1.1" xmlns="http://www.w3.org/2000/svg"><defs><linearGradient id="sw-gradient-0" x1="0" x2="0" y1="1" y2="0"><stop stop-color="rgba(243, 106, 62, 1)" offset="0%"/><stop stop-color="rgba(255, 179, 11, 1)" offset="100%"/></linearGradient></defs><path style="transform:translate(0, 0px); opacity:1" fill="url(#sw-gradient-0)" d="M0,98L60,89.8C120,82,240,65,360,65.3C480,65,600,82,720,114.3C840,147,960,196,1080,220.5C1200,245,1320,245,1440,253.2C1560,261,1680,278,1800,269.5C1920,261,2040,229,2160,179.7C2280,131,2400,65,2520,40.8C2640,16,2760,33,2880,40.8C3000,49,3120,49,3240,98C3360,147,3480,245,3600,277.7C3720,310,3840,278,3960,236.8C4080,196,4200,147,4320,163.3C4440,180,4560,261,4680,277.7C4800,294,4920,245,5040,245C5160,245,5280,294,5400,318.5C5520,343,5640,343,5760,326.7C5880,310,6000,278,6120,269.5C6240,261,6360,278,6480,253.2C6600,229,6720,163,6840,155.2C6960,147,7080,196,7200,245C7320,294,7440,343,7560,326.7C7680,310,7800,229,7920,204.2C8040,180,8160,212,8280,196C8400,180,8520,114,8580,81.7L8640,49L8640,490L8580,490C8520,490,8400,490,8280,490C8160,490,8040,490,7920,490C7800,490,7680,490,7560,490C7440,490,7320,490,7200,490C7080,490,6960,490,6840,490C6720,490,6600,490,6480,490C6360,490,6240,490,6120,490C6000,490,5880,490,5760,490C5640,490,5520,490,5400,490C5280,490,5160,490,5040,490C4920,490,4800,490,4680,490C4560,490,4440,490,4320,490C4200,490,4080,490,3960,490C3840,490,3720,490,3600,490C3480,490,3360,490,3240,490C3120,490,3000,490,2880,490C2760,490,2640,490,2520,490C2400,490,2280,490,2160,490C2040,490,1920,490,1800,490C1680,490,1560,490,1440,490C1320,490,1200,490,1080,490C960,490,840,490,720,490C600,490,480,490,360,490C240,490,120,490,60,490L0,490Z"/></svg>