<svg style="transform:rotate(180deg); transition: 0.3s" viewBox="0 0 1440 490" version="1.1" xmlns="http://www.w3.org/2000/svg"><defs><linearGradient id="sw-gradient-0" x1="0" x2="0" y1="1" y2="0"><stop stop-color="rgba(216.615, 61.509, 11.694, 1)" offset="0%"/><stop stop-color="rgba(255, 179, 11, 1)" offset="100%"/></linearGradient></defs><path style="transform:translate(0, 0px); opacity:1" fill="url(#sw-gradient-0)" d="M0,245L60,245C120,245,240,245,360,212.3C480,180,600,114,720,73.5C840,33,960,16,1080,40.8C1200,65,1320,131,1440,204.2C1560,278,1680,359,1800,343C1920,327,2040,212,2160,204.2C2280,196,2400,294,2520,343C2640,392,2760,392,2880,359.3C3000,327,3120,261,3240,261.3C3360,261,3480,327,3600,294C3720,261,3840,131,3960,81.7C4080,33,4200,65,4320,130.7C4440,196,4560,294,4680,302.2C4800,310,4920,229,5040,163.3C5160,98,5280,49,5400,73.5C5520,98,5640,196,5760,236.8C5880,278,6000,261,6120,236.8C6240,212,6360,180,6480,163.3C6600,147,6720,147,6840,147C6960,147,7080,147,7200,155.2C7320,163,7440,180,7560,204.2C7680,229,7800,261,7920,269.5C8040,278,8160,261,8280,285.8C8400,310,8520,376,8580,408.3L8640,441L8640,490L8580,490C8520,490,8400,490,8280,490C8160,490,8040,490,7920,490C7800,490,7680,490,7560,490C7440,490,7320,490,7200,490C7080,490,6960,490,6840,490C6720,490,6600,490,6480,490C6360,490,6240,490,6120,490C6000,490,5880,490,5760,490C5640,490,5520,490,5400,490C5280,490,5160,490,5040,490C4920,490,4800,490,4680,490C4560,490,4440,490,4320,490C4200,490,4080,490,3960,490C3840,490,3720,490,3600,490C3480,490,3360,490,3240,490C3120,490,3000,490,2880,490C2760,490,2640,490,2520,490C2400,490,2280,490,2160,490C2040,490,1920,490,1800,490C1680,490,1560,490,1440,490C1320,490,1200,490,1080,490C960,490,840,490,720,490C600,490,480,490,360,490C240,490,120,490,60,490L0,490Z"/><defs><linearGradient id="sw-gradient-1" x1="0" x2="0" y1="1" y2="0"><stop stop-color="rgba(243, 62, 230.993, 1)" offset="0%"/><stop stop-color="rgba(255, 179, 11, 1)" offset="100%"/></linearGradient></defs><path style="transform:translate(0, 50px); opacity:0.9" fill="url(#sw-gradient-1)" d="M0,245L60,220.5C120,196,240,147,360,163.3C480,180,600,261,720,294C840,327,960,310,1080,318.5C1200,327,1320,359,1440,326.7C1560,294,1680,196,1800,130.7C1920,65,2040,33,2160,24.5C2280,16,2400,33,2520,32.7C2640,33,2760,16,2880,57.2C3000,98,3120,196,3240,261.3C3360,327,3480,359,3600,310.3C3720,261,3840,131,3960,89.8C4080,49,4200,98,4320,122.5C4440,147,4560,147,4680,138.8C4800,131,4920,114,5040,163.3C5160,212,5280,327,5400,367.5C5520,408,5640,376,5760,351.2C5880,327,6000,310,6120,277.7C6240,245,6360,196,6480,147C6600,98,6720,49,6840,49C6960,49,7080,98,7200,106.2C7320,114,7440,82,7560,114.3C7680,147,7800,245,7920,302.2C8040,359,8160,376,8280,326.7C8400,278,8520,163,8580,106.2L8640,49L8640,490L8580,490C8520,490,8400,490,8280,490C8160,490,8040,490,7920,490C7800,490,7680,490,7560,490C7440,490,7320,490,7200,490C7080,490,6960,490,6840,490C6720,490,6600,490,6480,490C6360,490,6240,490,6120,490C6000,490,5880,490,5760,490C5640,490,5520,490,5400,490C5280,490,5160,490,5040,490C4920,490,4800,490,4680,490C4560,490,4440,490,4320,490C4200,490,4080,490,3960,490C3840,490,3720,490,3600,490C3480,490,3360,490,3240,490C3120,490,3000,490,2880,490C2760,490,2640,490,2520,490C2400,490,2280,490,2160,490C2040,490,1920,490,1800,490C1680,490,1560,490,1440,490C1320,490,1200,490,1080,490C960,490,840,490,720,490C600,490,480,490,360,490C240,490,120,490,60,490L0,490Z"/></svg>