<?xml version="1.0" standalone="no"?>
<svg xmlns:xlink="http://www.w3.org/1999/xlink" id="wave" style="transform:rotate(0deg); transition: 0.3s" viewBox="0 0 1440 490" version="1.1" xmlns="http://www.w3.org/2000/svg"><defs><linearGradient id="sw-gradient-0" x1="0" x2="0" y1="1" y2="0"><stop stop-color="rgba(0, 168.62, 255, 1)" offset="0%"/><stop stop-color="rgba(255, 179, 11, 1)" offset="100%"/></linearGradient></defs><path style="transform:translate(0, 0px); opacity:1" fill="url(#sw-gradient-0)" d="M0,343L60,334.8C120,327,240,310,360,310.3C480,310,600,327,720,326.7C840,327,960,310,1080,310.3C1200,310,1320,327,1440,302.2C1560,278,1680,212,1800,196C1920,180,2040,212,2160,253.2C2280,294,2400,343,2520,343C2640,343,2760,294,2880,269.5C3000,245,3120,245,3240,204.2C3360,163,3480,82,3600,81.7C3720,82,3840,163,3960,204.2C4080,245,4200,245,4320,212.3C4440,180,4560,114,4680,130.7C4800,147,4920,245,5040,236.8C5160,229,5280,114,5400,65.3C5520,16,5640,33,5760,65.3C5880,98,6000,147,6120,187.8C6240,229,6360,261,6480,269.5C6600,278,6720,261,6840,245C6960,229,7080,212,7200,204.2C7320,196,7440,196,7560,228.7C7680,261,7800,327,7920,294C8040,261,8160,131,8280,138.8C8400,147,8520,294,8580,367.5L8640,441L8640,490L8580,490C8520,490,8400,490,8280,490C8160,490,8040,490,7920,490C7800,490,7680,490,7560,490C7440,490,7320,490,7200,490C7080,490,6960,490,6840,490C6720,490,6600,490,6480,490C6360,490,6240,490,6120,490C6000,490,5880,490,5760,490C5640,490,5520,490,5400,490C5280,490,5160,490,5040,490C4920,490,4800,490,4680,490C4560,490,4440,490,4320,490C4200,490,4080,490,3960,490C3840,490,3720,490,3600,490C3480,490,3360,490,3240,490C3120,490,3000,490,2880,490C2760,490,2640,490,2520,490C2400,490,2280,490,2160,490C2040,490,1920,490,1800,490C1680,490,1560,490,1440,490C1320,490,1200,490,1080,490C960,490,840,490,720,490C600,490,480,490,360,490C240,490,120,490,60,490L0,490Z"/><defs><linearGradient id="sw-gradient-1" x1="0" x2="0" y1="1" y2="0"><stop stop-color="rgba(223.445, 24.678, 142.928, 1)" offset="0%"/><stop stop-color="rgba(255, 179, 11, 1)" offset="100%"/></linearGradient></defs><path style="transform:translate(0, 50px); opacity:0.9" fill="url(#sw-gradient-1)" d="M0,49L60,114.3C120,180,240,310,360,318.5C480,327,600,212,720,163.3C840,114,960,131,1080,122.5C1200,114,1320,82,1440,73.5C1560,65,1680,82,1800,147C1920,212,2040,327,2160,351.2C2280,376,2400,310,2520,277.7C2640,245,2760,245,2880,228.7C3000,212,3120,180,3240,187.8C3360,196,3480,245,3600,236.8C3720,229,3840,163,3960,138.8C4080,114,4200,131,4320,171.5C4440,212,4560,278,4680,277.7C4800,278,4920,212,5040,196C5160,180,5280,212,5400,187.8C5520,163,5640,82,5760,57.2C5880,33,6000,65,6120,98C6240,131,6360,163,6480,147C6600,131,6720,65,6840,49C6960,33,7080,65,7200,81.7C7320,98,7440,98,7560,138.8C7680,180,7800,261,7920,310.3C8040,359,8160,376,8280,383.8C8400,392,8520,392,8580,392L8640,392L8640,490L8580,490C8520,490,8400,490,8280,490C8160,490,8040,490,7920,490C7800,490,7680,490,7560,490C7440,490,7320,490,7200,490C7080,490,6960,490,6840,490C6720,490,6600,490,6480,490C6360,490,6240,490,6120,490C6000,490,5880,490,5760,490C5640,490,5520,490,5400,490C5280,490,5160,490,5040,490C4920,490,4800,490,4680,490C4560,490,4440,490,4320,490C4200,490,4080,490,3960,490C3840,490,3720,490,3600,490C3480,490,3360,490,3240,490C3120,490,3000,490,2880,490C2760,490,2640,490,2520,490C2400,490,2280,490,2160,490C2040,490,1920,490,1800,490C1680,490,1560,490,1440,490C1320,490,1200,490,1080,490C960,490,840,490,720,490C600,490,480,490,360,490C240,490,120,490,60,490L0,490Z"/><defs><linearGradient id="sw-gradient-2" x1="0" x2="0" y1="1" y2="0"><stop stop-color="rgba(255, 61.989, 0, 1)" offset="0%"/><stop stop-color="rgba(255, 179, 11, 1)" offset="100%"/></linearGradient></defs><path style="transform:translate(0, 100px); opacity:0.8" fill="url(#sw-gradient-2)" d="M0,245L60,261.3C120,278,240,310,360,302.2C480,294,600,245,720,261.3C840,278,960,359,1080,326.7C1200,294,1320,147,1440,130.7C1560,114,1680,229,1800,269.5C1920,310,2040,278,2160,236.8C2280,196,2400,147,2520,106.2C2640,65,2760,33,2880,40.8C3000,49,3120,98,3240,171.5C3360,245,3480,343,3600,359.3C3720,376,3840,310,3960,261.3C4080,212,4200,180,4320,196C4440,212,4560,278,4680,253.2C4800,229,4920,114,5040,57.2C5160,0,5280,0,5400,49C5520,98,5640,196,5760,220.5C5880,245,6000,196,6120,204.2C6240,212,6360,278,6480,310.3C6600,343,6720,343,6840,359.3C6960,376,7080,408,7200,400.2C7320,392,7440,343,7560,277.7C7680,212,7800,131,7920,147C8040,163,8160,278,8280,294C8400,310,8520,229,8580,187.8L8640,147L8640,490L8580,490C8520,490,8400,490,8280,490C8160,490,8040,490,7920,490C7800,490,7680,490,7560,490C7440,490,7320,490,7200,490C7080,490,6960,490,6840,490C6720,490,6600,490,6480,490C6360,490,6240,490,6120,490C6000,490,5880,490,5760,490C5640,490,5520,490,5400,490C5280,490,5160,490,5040,490C4920,490,4800,490,4680,490C4560,490,4440,490,4320,490C4200,490,4080,490,3960,490C3840,490,3720,490,3600,490C3480,490,3360,490,3240,490C3120,490,3000,490,2880,490C2760,490,2640,490,2520,490C2400,490,2280,490,2160,490C2040,490,1920,490,1800,490C1680,490,1560,490,1440,490C1320,490,1200,490,1080,490C960,490,840,490,720,490C600,490,480,490,360,490C240,490,120,490,60,490L0,490Z"/></svg>