<svg xmlns="http://www.w3.org/2000/svg" xmlns:xlink="http://www.w3.org/1999/xlink" width="500" zoomAndPan="magnify" viewBox="0 0 375 374.999991" height="500" preserveAspectRatio="xMidYMid meet" version="1.0"><defs><clipPath id="81ede1e901"><path d="M 158.476562 145.1875 L 216.226562 145.1875 L 216.226562 204.4375 L 158.476562 204.4375 Z M 158.476562 145.1875 " clip-rule="nonzero"/></clipPath><clipPath id="52ad95df93"><path d="M 158.476562 150.230469 L 207.226562 150.230469 L 207.226562 198.980469 L 158.476562 198.980469 Z M 158.476562 150.230469 " clip-rule="nonzero"/></clipPath><clipPath id="2d236f4688"><path d="M 237.449219 104 L 257 104 L 257 145 L 237.449219 145 Z M 237.449219 104 " clip-rule="nonzero"/></clipPath><clipPath id="7a3b4616e5"><path d="M 267 104 L 286.199219 104 L 286.199219 145 L 267 145 Z M 267 104 " clip-rule="nonzero"/></clipPath><clipPath id="f04bccd8c8"><path d="M 249 116 L 275 116 L 275 156.421875 L 249 156.421875 Z M 249 116 " clip-rule="nonzero"/></clipPath><clipPath id="a214bc9d60"><path d="M 267 193.042969 L 281 193.042969 L 281 208 L 267 208 Z M 267 193.042969 " clip-rule="nonzero"/></clipPath><clipPath id="3893fbb3b0"><path d="M 242 193.042969 L 257 193.042969 L 257 208 L 242 208 Z M 242 193.042969 " clip-rule="nonzero"/></clipPath><clipPath id="095526f69d"><path d="M 237.449219 210 L 257 210 L 257 251 L 237.449219 251 Z M 237.449219 210 " clip-rule="nonzero"/></clipPath><clipPath id="d74187ef62"><path d="M 267 210 L 286.199219 210 L 286.199219 251 L 267 251 Z M 267 210 " clip-rule="nonzero"/></clipPath><clipPath id="1dbe2cf2f6"><path d="M 58 134.664062 L 134 134.664062 L 134 214.914062 L 58 214.914062 Z M 58 134.664062 " clip-rule="nonzero"/></clipPath><clipPath id="e189b95ef7"><path d="M 50.597656 134.664062 L 73 134.664062 L 73 160 L 50.597656 160 Z M 50.597656 134.664062 " clip-rule="nonzero"/></clipPath><clipPath id="69166d26ce"><path d="M 80 134.664062 L 97 134.664062 L 97 160 L 80 160 Z M 80 134.664062 " clip-rule="nonzero"/></clipPath><clipPath id="af7ff5d817"><path d="M 107 134.664062 L 127 134.664062 L 127 160 L 107 160 Z M 107 134.664062 " clip-rule="nonzero"/></clipPath><clipPath id="6fbb6a5389"><path d="M 65 134.664062 L 85 134.664062 L 85 160 L 65 160 Z M 65 134.664062 " clip-rule="nonzero"/></clipPath><clipPath id="9db07be8e0"><path d="M 94 134.664062 L 112 134.664062 L 112 160 L 94 160 Z M 94 134.664062 " clip-rule="nonzero"/></clipPath><clipPath id="2a64a0838c"><path d="M 119 134.664062 L 141.347656 134.664062 L 141.347656 160 L 119 160 Z M 119 134.664062 " clip-rule="nonzero"/></clipPath></defs><g clip-path="url(#81ede1e901)"><path fill="#38b6ff" d="M 201.851562 188.671875 C 202.339844 186.75 202.714844 184.777344 202.960938 182.757812 C 202.992188 182.496094 203.023438 182.230469 203.050781 181.96875 L 206.335938 181.96875 C 207.5 181.96875 208.453125 180.992188 208.453125 179.792969 L 208.453125 176.515625 L 212.636719 176.527344 C 212.351562 180.972656 210.976562 185.113281 208.78125 188.671875 Z M 198.136719 198.335938 C 199.160156 196.394531 200.035156 194.378906 200.761719 192.296875 L 206.089844 192.296875 C 203.863281 194.808594 201.160156 196.871094 198.136719 198.335938 Z M 193.226562 200.105469 C 191.867188 200.4375 190.464844 200.65625 189.03125 200.753906 L 189.03125 192.296875 L 197.003906 192.296875 C 195.96875 194.976562 194.648438 197.542969 193.042969 199.976562 Z M 199.519531 181.96875 C 199.253906 184.273438 198.820312 186.507812 198.210938 188.671875 L 189.03125 188.671875 L 189.03125 181.96875 Z M 187.175781 173.835938 L 185.410156 179.628906 L 184.304688 179.628906 L 184.277344 179.726562 L 184.253906 179.628906 L 183.25 179.628906 L 181.347656 172.6875 L 179.441406 179.628906 L 178.441406 179.628906 L 178.414062 179.726562 L 178.386719 179.628906 L 177.28125 179.628906 L 175.515625 173.835938 L 173.746094 179.628906 L 172.644531 179.628906 L 172.613281 179.726562 L 172.589844 179.628906 L 171.589844 179.628906 L 168.675781 169.011719 L 171.476562 169.011719 L 172.773438 174.382812 L 174.425781 169.011719 L 175.507812 169.011719 L 175.515625 168.988281 L 175.523438 169.011719 L 176.605469 169.011719 L 178.253906 174.382812 L 179.554688 169.011719 L 183.136719 169.011719 L 184.4375 174.382812 L 186.085938 169.011719 L 187.167969 169.011719 L 187.175781 168.988281 L 187.183594 169.011719 L 188.265625 169.011719 L 189.917969 174.382812 L 191.214844 169.011719 L 194.796875 169.011719 L 196.097656 174.382812 L 197.75 169.011719 L 198.832031 169.011719 L 198.839844 168.988281 L 198.847656 169.011719 L 199.929688 169.011719 L 201.578125 174.382812 L 202.878906 169.011719 L 205.679688 169.011719 L 202.765625 179.628906 L 201.761719 179.628906 L 201.738281 179.726562 L 201.710938 179.628906 L 200.605469 179.628906 L 198.839844 173.835938 L 197.070312 179.628906 L 195.96875 179.628906 L 195.9375 179.726562 L 195.914062 179.628906 L 194.910156 179.628906 L 193.007812 172.6875 L 191.105469 179.628906 L 190.101562 179.628906 L 190.078125 179.726562 L 190.046875 179.628906 L 188.945312 179.628906 Z M 185.5 188.671875 L 175.835938 188.671875 C 175.234375 186.507812 174.8125 184.273438 174.570312 181.96875 L 185.5 181.96875 Z M 185.5 200.742188 C 183.957031 200.628906 182.453125 200.371094 181 199.984375 C 179.382812 197.542969 178.058594 194.980469 177.027344 192.296875 L 185.5 192.296875 Z M 168.617188 192.296875 L 173.144531 192.296875 C 173.796875 194.179688 174.578125 196.003906 175.480469 197.777344 C 172.894531 196.363281 170.574219 194.503906 168.617188 192.296875 Z M 165.925781 188.671875 C 163.703125 185.066406 162.320312 180.867188 162.0625 176.359375 L 165.722656 176.371094 L 165.722656 179.792969 C 165.722656 180.992188 166.675781 181.96875 167.84375 181.96875 L 170.90625 181.96875 C 170.949219 182.414062 170.996094 182.859375 171.054688 183.300781 C 171.285156 185.128906 171.625 186.921875 172.066406 188.671875 Z M 167.015625 159.320312 L 173.429688 159.320312 C 172.847656 161.242188 172.300781 163.351562 171.847656 165.601562 C 171.796875 165.863281 171.746094 166.125 171.695312 166.386719 L 167.84375 166.386719 C 166.675781 166.386719 165.722656 167.363281 165.722656 168.5625 L 165.722656 172.746094 L 162.097656 172.734375 C 162.484375 167.734375 164.253906 163.128906 167.015625 159.320312 Z M 176.367188 151.386719 C 175.835938 152.582031 175.242188 154.03125 174.636719 155.695312 L 170.195312 155.695312 C 172.027344 153.964844 174.101562 152.507812 176.367188 151.386719 Z M 185.5 159.320312 L 185.5 166.386719 L 175.433594 166.386719 C 175.945312 163.820312 176.59375 161.4375 177.277344 159.320312 Z M 181.316406 149.558594 C 182.671875 149.21875 184.070312 148.988281 185.5 148.882812 L 185.5 155.695312 L 178.554688 155.695312 C 179.8125 152.441406 180.949219 150.238281 181.316406 149.558594 Z M 189.03125 159.320312 L 197.136719 159.320312 C 197.734375 161.308594 198.300781 163.511719 198.753906 165.875 C 198.785156 166.042969 198.816406 166.214844 198.847656 166.386719 L 189.03125 166.386719 Z M 189.03125 148.871094 C 190.507812 148.96875 191.953125 149.199219 193.351562 149.550781 C 193.878906 150.617188 194.878906 152.773438 195.9375 155.695312 L 189.03125 155.695312 Z M 204.507812 155.695312 L 199.699219 155.695312 C 199.117188 153.984375 198.535156 152.480469 198.007812 151.226562 C 200.402344 152.367188 202.589844 153.882812 204.507812 155.695312 Z M 207.691406 159.320312 C 210.484375 163.171875 212.261719 167.839844 212.621094 172.902344 L 208.453125 172.890625 L 208.453125 168.5625 C 208.453125 167.363281 207.5 166.386719 206.335938 166.386719 L 202.4375 166.386719 C 202.359375 165.945312 202.28125 165.503906 202.195312 165.058594 C 201.800781 163.015625 201.328125 161.09375 200.828125 159.320312 Z M 187.351562 145.1875 C 171.433594 145.1875 158.484375 158.476562 158.484375 174.8125 C 158.484375 191.148438 171.433594 204.4375 187.351562 204.4375 C 203.273438 204.4375 216.222656 191.148438 216.222656 174.8125 C 216.222656 158.476562 203.273438 145.1875 187.351562 145.1875 " fill-opacity="1" fill-rule="nonzero"/></g><g clip-path="url(#52ad95df93)"><path fill="#000000" d="M 198.492188 181.472656 C 195.980469 181.472656 193.726562 182.546875 192.132812 184.246094 L 175.90625 175.234375 C 175.910156 175.066406 175.925781 174.898438 175.925781 174.722656 C 175.925781 174.589844 175.910156 174.453125 175.90625 174.320312 L 192.347656 165.191406 C 193.925781 166.753906 196.09375 167.722656 198.492188 167.722656 C 203.308594 167.722656 207.21875 163.804688 207.21875 158.976562 C 207.21875 154.140625 203.308594 150.226562 198.492188 150.226562 C 193.679688 150.226562 189.769531 154.140625 189.769531 158.976562 C 189.769531 159.230469 189.785156 159.492188 189.808594 159.746094 L 173.570312 168.761719 C 171.976562 167.054688 169.722656 165.976562 167.203125 165.976562 C 162.382812 165.976562 158.476562 169.890625 158.476562 174.726562 C 158.476562 179.554688 162.382812 183.472656 167.203125 183.472656 C 169.683594 183.472656 171.914062 182.433594 173.503906 180.761719 L 189.789062 189.804688 C 189.785156 189.945312 189.769531 190.078125 189.769531 190.222656 C 189.769531 195.058594 193.679688 198.972656 198.492188 198.972656 C 203.308594 198.972656 207.21875 195.058594 207.21875 190.222656 C 207.21875 185.390625 203.308594 181.472656 198.492188 181.472656 Z M 198.492188 181.472656 " fill-opacity="1" fill-rule="nonzero"/></g><path fill="#38b6ff" d="M 280.957031 95.007812 C 280.957031 95.457031 280.910156 95.90625 280.820312 96.351562 C 280.734375 96.792969 280.601562 97.226562 280.425781 97.644531 C 280.253906 98.0625 280.039062 98.460938 279.785156 98.835938 C 279.53125 99.210938 279.246094 99.558594 278.921875 99.878906 C 278.601562 100.199219 278.25 100.484375 277.871094 100.738281 C 277.492188 100.988281 277.09375 101.199219 276.671875 101.375 C 276.25 101.546875 275.816406 101.679688 275.371094 101.765625 C 274.925781 101.855469 274.472656 101.898438 274.015625 101.898438 C 273.5625 101.898438 273.109375 101.855469 272.664062 101.765625 C 272.21875 101.679688 271.785156 101.546875 271.363281 101.375 C 270.941406 101.199219 270.542969 100.988281 270.164062 100.738281 C 269.785156 100.484375 269.433594 100.199219 269.113281 99.878906 C 268.789062 99.558594 268.503906 99.210938 268.25 98.835938 C 267.996094 98.460938 267.78125 98.0625 267.609375 97.644531 C 267.433594 97.226562 267.300781 96.792969 267.214844 96.351562 C 267.125 95.90625 267.078125 95.457031 267.078125 95.007812 C 267.078125 94.554688 267.125 94.105469 267.214844 93.660156 C 267.300781 93.21875 267.433594 92.785156 267.609375 92.367188 C 267.78125 91.949219 267.996094 91.554688 268.25 91.175781 C 268.503906 90.800781 268.789062 90.453125 269.113281 90.132812 C 269.433594 89.8125 269.785156 89.527344 270.164062 89.273438 C 270.542969 89.023438 270.941406 88.8125 271.363281 88.636719 C 271.785156 88.464844 272.21875 88.335938 272.664062 88.246094 C 273.109375 88.15625 273.5625 88.113281 274.015625 88.113281 C 274.472656 88.113281 274.925781 88.15625 275.371094 88.246094 C 275.816406 88.335938 276.25 88.464844 276.671875 88.636719 C 277.09375 88.8125 277.492188 89.023438 277.871094 89.273438 C 278.25 89.527344 278.601562 89.8125 278.921875 90.132812 C 279.246094 90.453125 279.53125 90.800781 279.785156 91.175781 C 280.039062 91.554688 280.253906 91.949219 280.425781 92.367188 C 280.601562 92.785156 280.734375 93.21875 280.820312 93.660156 C 280.910156 94.105469 280.957031 94.554688 280.957031 95.007812 Z M 280.957031 95.007812 " fill-opacity="1" fill-rule="nonzero"/><path fill="#38b6ff" d="M 250.320312 88.144531 C 250.773438 88.191406 251.21875 88.277344 251.65625 88.410156 C 252.089844 88.542969 252.511719 88.714844 252.910156 88.929688 C 253.3125 89.140625 253.691406 89.390625 254.042969 89.679688 C 254.394531 89.964844 254.714844 90.285156 255.003906 90.636719 C 255.292969 90.984375 255.542969 91.359375 255.757812 91.757812 C 255.972656 92.15625 256.144531 92.574219 256.277344 93.007812 C 256.410156 93.441406 256.5 93.882812 256.542969 94.332031 C 256.585938 94.78125 256.585938 95.234375 256.542969 95.683594 C 256.496094 96.132812 256.410156 96.574219 256.277344 97.007812 C 256.144531 97.441406 255.96875 97.859375 255.753906 98.257812 C 255.539062 98.65625 255.289062 99.03125 255 99.378906 C 254.710938 99.730469 254.390625 100.046875 254.039062 100.335938 C 253.683594 100.621094 253.308594 100.871094 252.90625 101.085938 C 252.503906 101.296875 252.085938 101.46875 251.648438 101.601562 C 251.214844 101.734375 250.769531 101.820312 250.316406 101.863281 C 249.863281 101.910156 249.410156 101.910156 248.957031 101.863281 C 248.503906 101.820312 248.058594 101.730469 247.621094 101.601562 C 247.1875 101.46875 246.765625 101.296875 246.367188 101.082031 C 245.964844 100.867188 245.585938 100.617188 245.234375 100.332031 C 244.882812 100.042969 244.5625 99.726562 244.273438 99.375 C 243.984375 99.027344 243.734375 98.652344 243.519531 98.25 C 243.304688 97.851562 243.128906 97.4375 243 97.003906 C 242.867188 96.570312 242.777344 96.128906 242.734375 95.675781 C 242.6875 95.226562 242.6875 94.777344 242.734375 94.328125 C 242.777344 93.875 242.867188 93.433594 243 93 C 243.132812 92.570312 243.304688 92.152344 243.519531 91.753906 C 243.734375 91.355469 243.988281 90.980469 244.277344 90.628906 C 244.566406 90.28125 244.886719 89.960938 245.238281 89.675781 C 245.589844 89.386719 245.96875 89.136719 246.371094 88.925781 C 246.773438 88.710938 247.191406 88.539062 247.628906 88.410156 C 248.0625 88.277344 248.507812 88.191406 248.960938 88.144531 C 249.414062 88.101562 249.867188 88.101562 250.320312 88.144531 Z M 250.320312 88.144531 " fill-opacity="1" fill-rule="nonzero"/><g clip-path="url(#2d236f4688)"><path fill="#38b6ff" d="M 252.085938 141.820312 C 251.273438 141.464844 250.554688 140.972656 249.925781 140.351562 C 249.246094 139.667969 248.722656 138.882812 248.359375 137.996094 C 247.996094 137.105469 247.816406 136.183594 247.824219 135.222656 L 247.824219 121.695312 C 247.824219 121.230469 247.867188 120.769531 247.960938 120.3125 C 248.050781 119.855469 248.1875 119.410156 248.367188 118.980469 C 248.546875 118.546875 248.765625 118.140625 249.027344 117.75 C 249.289062 117.363281 249.585938 117.003906 249.917969 116.675781 C 250.246094 116.34375 250.609375 116.050781 251 115.792969 C 251.390625 115.53125 251.800781 115.3125 252.234375 115.136719 C 252.667969 114.957031 253.117188 114.824219 253.574219 114.730469 C 254.035156 114.640625 254.5 114.59375 254.96875 114.59375 C 255.199219 114.59375 255.40625 114.53125 255.597656 114.402344 C 255.785156 114.277344 255.921875 114.109375 256.007812 113.898438 C 256.09375 113.6875 256.113281 113.472656 256.066406 113.25 C 256.015625 113.027344 255.910156 112.835938 255.746094 112.679688 C 254.890625 111.867188 254.230469 110.917969 253.765625 109.835938 C 253.300781 108.753906 253.070312 107.625 253.074219 106.449219 C 253.074219 105.949219 253.117188 105.453125 253.203125 104.960938 L 242.785156 104.960938 C 242.433594 104.960938 242.085938 104.992188 241.746094 105.0625 C 241.402344 105.128906 241.066406 105.230469 240.746094 105.363281 C 240.421875 105.496094 240.113281 105.660156 239.824219 105.851562 C 239.53125 106.046875 239.261719 106.265625 239.015625 106.511719 C 238.769531 106.757812 238.546875 107.023438 238.351562 107.3125 C 238.15625 107.601562 237.992188 107.90625 237.859375 108.230469 C 237.726562 108.550781 237.625 108.882812 237.554688 109.222656 C 237.488281 109.5625 237.453125 109.90625 237.453125 110.253906 L 237.453125 123.878906 C 237.453125 124.226562 237.488281 124.566406 237.554688 124.902344 C 237.621094 125.242188 237.71875 125.570312 237.851562 125.886719 C 237.984375 126.207031 238.144531 126.511719 238.335938 126.796875 C 238.527344 127.085938 238.742188 127.351562 238.988281 127.597656 C 239.230469 127.839844 239.496094 128.0625 239.78125 128.253906 C 240.066406 128.449219 240.371094 128.613281 240.6875 128.75 C 241.007812 128.886719 241.335938 128.988281 241.675781 129.058594 C 242.015625 129.132812 242.355469 129.171875 242.703125 129.175781 L 242.703125 139.632812 C 242.703125 139.980469 242.738281 140.324219 242.804688 140.667969 C 242.875 141.007812 242.976562 141.339844 243.109375 141.660156 C 243.242188 141.980469 243.40625 142.285156 243.601562 142.574219 C 243.796875 142.863281 244.019531 143.132812 244.265625 143.378906 C 244.511719 143.625 244.78125 143.84375 245.074219 144.035156 C 245.363281 144.230469 245.671875 144.390625 245.996094 144.527344 C 246.316406 144.660156 246.652344 144.757812 246.996094 144.828125 C 247.335938 144.894531 247.683594 144.929688 248.035156 144.929688 L 251.25 144.929688 C 251.355469 144.929688 251.460938 144.929688 251.566406 144.921875 C 251.773438 144.90625 251.96875 144.855469 252.152344 144.765625 C 252.339844 144.679688 252.503906 144.558594 252.640625 144.410156 C 252.78125 144.261719 252.890625 144.089844 252.964844 143.898438 C 253.039062 143.710938 253.074219 143.511719 253.074219 143.308594 C 253.074219 142.984375 252.980469 142.6875 252.804688 142.417969 C 252.625 142.148438 252.386719 141.949219 252.085938 141.820312 Z M 252.085938 141.820312 " fill-opacity="1" fill-rule="nonzero"/></g><g clip-path="url(#7a3b4616e5)"><path fill="#38b6ff" d="M 280.875 104.957031 L 270.453125 104.957031 C 270.578125 105.65625 270.613281 106.363281 270.5625 107.070312 C 270.511719 107.777344 270.378906 108.46875 270.15625 109.144531 C 269.933594 109.820312 269.632812 110.457031 269.253906 111.058594 C 268.875 111.660156 268.425781 112.207031 267.914062 112.699219 C 267.195312 113.390625 267.691406 114.59375 268.691406 114.59375 C 269.160156 114.59375 269.625 114.640625 270.085938 114.730469 C 270.542969 114.824219 270.992188 114.957031 271.425781 115.136719 C 271.859375 115.3125 272.269531 115.53125 272.660156 115.792969 C 273.050781 116.050781 273.414062 116.34375 273.742188 116.675781 C 274.074219 117.003906 274.371094 117.363281 274.632812 117.75 C 274.894531 118.140625 275.113281 118.546875 275.292969 118.980469 C 275.472656 119.410156 275.609375 119.855469 275.699219 120.3125 C 275.792969 120.769531 275.835938 121.230469 275.835938 121.695312 L 275.835938 135.222656 C 275.84375 136.183594 275.664062 137.105469 275.300781 137.996094 C 274.9375 138.882812 274.414062 139.667969 273.734375 140.351562 C 273.105469 140.972656 272.386719 141.464844 271.574219 141.820312 C 271.273438 141.949219 271.035156 142.148438 270.855469 142.417969 C 270.679688 142.6875 270.585938 142.984375 270.585938 143.308594 C 270.585938 143.515625 270.625 143.714844 270.703125 143.910156 C 270.78125 144.101562 270.894531 144.273438 271.039062 144.425781 C 271.183594 144.574219 271.351562 144.691406 271.539062 144.777344 C 271.730469 144.863281 271.929688 144.914062 272.140625 144.921875 C 272.226562 144.925781 272.320312 144.929688 272.410156 144.929688 L 275.625 144.929688 C 275.976562 144.929688 276.320312 144.894531 276.664062 144.828125 C 277.007812 144.757812 277.34375 144.660156 277.664062 144.527344 C 277.988281 144.390625 278.296875 144.230469 278.585938 144.035156 C 278.878906 143.84375 279.148438 143.625 279.394531 143.378906 C 279.640625 143.132812 279.863281 142.863281 280.058594 142.574219 C 280.253906 142.285156 280.417969 141.980469 280.550781 141.660156 C 280.683594 141.339844 280.785156 141.007812 280.855469 140.667969 C 280.921875 140.324219 280.957031 139.980469 280.957031 139.632812 L 280.957031 129.175781 C 281.304688 129.167969 281.644531 129.128906 281.984375 129.058594 C 282.324219 128.988281 282.652344 128.882812 282.972656 128.75 C 283.289062 128.613281 283.59375 128.449219 283.878906 128.253906 C 284.164062 128.058594 284.429688 127.839844 284.671875 127.59375 C 284.917969 127.351562 285.132812 127.082031 285.324219 126.796875 C 285.515625 126.507812 285.675781 126.207031 285.808594 125.886719 C 285.941406 125.570312 286.039062 125.242188 286.105469 124.902344 C 286.171875 124.566406 286.207031 124.222656 286.207031 123.878906 L 286.207031 110.253906 C 286.207031 109.90625 286.171875 109.5625 286.105469 109.222656 C 286.035156 108.878906 285.933594 108.550781 285.800781 108.226562 C 285.667969 107.90625 285.503906 107.601562 285.308594 107.3125 C 285.113281 107.023438 284.890625 106.753906 284.644531 106.511719 C 284.398438 106.265625 284.128906 106.042969 283.835938 105.851562 C 283.546875 105.65625 283.238281 105.496094 282.914062 105.363281 C 282.589844 105.230469 282.257812 105.128906 281.914062 105.0625 C 281.570312 104.992188 281.226562 104.957031 280.875 104.957031 Z M 280.875 104.957031 " fill-opacity="1" fill-rule="nonzero"/></g><g clip-path="url(#f04bccd8c8)"><path fill="#38b6ff" d="M 268.6875 116.402344 L 254.972656 116.402344 C 254.621094 116.402344 254.277344 116.433594 253.933594 116.503906 C 253.589844 116.570312 253.253906 116.671875 252.933594 116.804688 C 252.609375 116.9375 252.300781 117.101562 252.011719 117.292969 C 251.71875 117.488281 251.449219 117.707031 251.203125 117.953125 C 250.957031 118.199219 250.734375 118.464844 250.539062 118.753906 C 250.34375 119.042969 250.179688 119.347656 250.046875 119.671875 C 249.914062 119.992188 249.8125 120.324219 249.742188 120.664062 C 249.675781 121.003906 249.640625 121.347656 249.640625 121.695312 L 249.640625 135.320312 C 249.640625 135.664062 249.675781 136.007812 249.742188 136.34375 C 249.808594 136.683594 249.910156 137.011719 250.039062 137.328125 C 250.171875 137.648438 250.332031 137.953125 250.523438 138.238281 C 250.714844 138.527344 250.929688 138.792969 251.175781 139.039062 C 251.417969 139.28125 251.683594 139.503906 251.96875 139.695312 C 252.253906 139.890625 252.558594 140.054688 252.875 140.191406 C 253.195312 140.328125 253.523438 140.429688 253.863281 140.5 C 254.203125 140.574219 254.546875 140.613281 254.890625 140.617188 L 254.890625 151.074219 C 254.890625 151.421875 254.925781 151.765625 254.996094 152.109375 C 255.0625 152.449219 255.164062 152.78125 255.296875 153.101562 C 255.429688 153.421875 255.59375 153.726562 255.789062 154.015625 C 255.984375 154.304688 256.207031 154.574219 256.453125 154.820312 C 256.699219 155.066406 256.96875 155.285156 257.261719 155.476562 C 257.550781 155.671875 257.859375 155.835938 258.183594 155.96875 C 258.503906 156.101562 258.839844 156.203125 259.183594 156.269531 C 259.527344 156.335938 259.871094 156.371094 260.222656 156.371094 L 263.4375 156.371094 C 263.785156 156.371094 264.132812 156.335938 264.476562 156.269531 C 264.820312 156.203125 265.152344 156.101562 265.476562 155.96875 C 265.800781 155.835938 266.105469 155.671875 266.398438 155.476562 C 266.6875 155.285156 266.957031 155.066406 267.207031 154.820312 C 267.453125 154.574219 267.675781 154.304688 267.867188 154.015625 C 268.0625 153.726562 268.226562 153.421875 268.363281 153.101562 C 268.496094 152.78125 268.597656 152.449219 268.664062 152.109375 C 268.734375 151.765625 268.765625 151.421875 268.765625 151.074219 L 268.765625 140.617188 C 269.113281 140.613281 269.457031 140.574219 269.796875 140.5 C 270.136719 140.429688 270.464844 140.328125 270.78125 140.191406 C 271.101562 140.054688 271.402344 139.890625 271.691406 139.695312 C 271.976562 139.503906 272.242188 139.28125 272.484375 139.039062 C 272.726562 138.792969 272.945312 138.527344 273.136719 138.238281 C 273.328125 137.953125 273.488281 137.648438 273.621094 137.328125 C 273.75 137.011719 273.851562 136.683594 273.917969 136.34375 C 273.984375 136.007812 274.015625 135.664062 274.015625 135.320312 L 274.015625 121.695312 C 274.015625 121.347656 273.984375 121.003906 273.914062 120.664062 C 273.847656 120.324219 273.746094 119.992188 273.613281 119.671875 C 273.476562 119.347656 273.3125 119.042969 273.121094 118.753906 C 272.925781 118.464844 272.703125 118.199219 272.457031 117.953125 C 272.207031 117.707031 271.9375 117.488281 271.648438 117.292969 C 271.355469 117.101562 271.050781 116.9375 270.726562 116.804688 C 270.402344 116.671875 270.070312 116.570312 269.726562 116.503906 C 269.382812 116.433594 269.035156 116.402344 268.6875 116.402344 Z M 268.6875 116.402344 " fill-opacity="1" fill-rule="nonzero"/></g><path fill="#38b6ff" d="M 268.765625 106.449219 C 268.765625 106.902344 268.722656 107.347656 268.632812 107.792969 C 268.546875 108.238281 268.414062 108.667969 268.238281 109.085938 C 268.066406 109.503906 267.851562 109.902344 267.597656 110.277344 C 267.34375 110.652344 267.058594 111.003906 266.734375 111.320312 C 266.414062 111.640625 266.0625 111.929688 265.683594 112.179688 C 265.304688 112.429688 264.90625 112.644531 264.484375 112.816406 C 264.0625 112.988281 263.628906 113.121094 263.183594 113.207031 C 262.734375 113.296875 262.285156 113.339844 261.828125 113.339844 C 261.375 113.339844 260.921875 113.296875 260.476562 113.207031 C 260.027344 113.121094 259.59375 112.988281 259.175781 112.816406 C 258.753906 112.644531 258.355469 112.429688 257.976562 112.179688 C 257.597656 111.929688 257.246094 111.640625 256.921875 111.320312 C 256.601562 111.003906 256.3125 110.652344 256.0625 110.277344 C 255.808594 109.902344 255.59375 109.503906 255.417969 109.085938 C 255.246094 108.667969 255.113281 108.238281 255.023438 107.792969 C 254.9375 107.347656 254.890625 106.902344 254.890625 106.449219 C 254.890625 105.996094 254.9375 105.546875 255.023438 105.105469 C 255.113281 104.660156 255.246094 104.230469 255.417969 103.8125 C 255.59375 103.394531 255.808594 102.996094 256.0625 102.621094 C 256.3125 102.242188 256.601562 101.894531 256.921875 101.574219 C 257.246094 101.253906 257.597656 100.96875 257.976562 100.71875 C 258.355469 100.464844 258.753906 100.253906 259.175781 100.082031 C 259.59375 99.90625 260.027344 99.777344 260.476562 99.6875 C 260.921875 99.601562 261.375 99.554688 261.828125 99.554688 C 262.285156 99.554688 262.734375 99.601562 263.183594 99.6875 C 263.628906 99.777344 264.0625 99.90625 264.484375 100.082031 C 264.90625 100.253906 265.304688 100.464844 265.683594 100.71875 C 266.0625 100.96875 266.414062 101.253906 266.734375 101.574219 C 267.058594 101.894531 267.34375 102.242188 267.597656 102.621094 C 267.851562 102.996094 268.066406 103.394531 268.238281 103.8125 C 268.414062 104.230469 268.546875 104.660156 268.632812 105.105469 C 268.722656 105.546875 268.765625 105.996094 268.765625 106.449219 Z M 268.765625 106.449219 " fill-opacity="1" fill-rule="nonzero"/><g clip-path="url(#a214bc9d60)"><path fill="#38b6ff" d="M 280.957031 200.625 C 280.957031 201.078125 280.910156 201.527344 280.820312 201.972656 C 280.734375 202.414062 280.601562 202.847656 280.425781 203.265625 C 280.253906 203.683594 280.039062 204.078125 279.785156 204.457031 C 279.53125 204.832031 279.246094 205.179688 278.921875 205.5 C 278.601562 205.820312 278.25 206.105469 277.871094 206.355469 C 277.492188 206.609375 277.09375 206.820312 276.671875 206.996094 C 276.25 207.167969 275.816406 207.296875 275.371094 207.386719 C 274.925781 207.476562 274.472656 207.519531 274.015625 207.519531 C 273.5625 207.519531 273.109375 207.476562 272.664062 207.386719 C 272.21875 207.296875 271.785156 207.167969 271.363281 206.996094 C 270.941406 206.820312 270.542969 206.609375 270.164062 206.355469 C 269.785156 206.105469 269.433594 205.820312 269.113281 205.5 C 268.789062 205.179688 268.503906 204.832031 268.25 204.457031 C 267.996094 204.078125 267.78125 203.683594 267.609375 203.265625 C 267.433594 202.847656 267.300781 202.414062 267.214844 201.972656 C 267.125 201.527344 267.078125 201.078125 267.078125 200.625 C 267.078125 200.171875 267.125 199.726562 267.214844 199.28125 C 267.300781 198.835938 267.433594 198.40625 267.609375 197.988281 C 267.78125 197.570312 267.996094 197.171875 268.25 196.796875 C 268.503906 196.421875 268.789062 196.074219 269.113281 195.753906 C 269.433594 195.433594 269.785156 195.148438 270.164062 194.894531 C 270.542969 194.644531 270.941406 194.433594 271.363281 194.257812 C 271.785156 194.085938 272.21875 193.953125 272.664062 193.867188 C 273.109375 193.777344 273.5625 193.734375 274.015625 193.734375 C 274.472656 193.734375 274.925781 193.777344 275.371094 193.867188 C 275.816406 193.953125 276.25 194.085938 276.671875 194.257812 C 277.09375 194.433594 277.492188 194.644531 277.871094 194.894531 C 278.25 195.148438 278.601562 195.433594 278.921875 195.753906 C 279.246094 196.074219 279.53125 196.421875 279.785156 196.796875 C 280.039062 197.171875 280.253906 197.570312 280.425781 197.988281 C 280.601562 198.40625 280.734375 198.835938 280.820312 199.28125 C 280.910156 199.726562 280.957031 200.171875 280.957031 200.625 Z M 280.957031 200.625 " fill-opacity="1" fill-rule="nonzero"/></g><g clip-path="url(#3893fbb3b0)"><path fill="#38b6ff" d="M 250.320312 193.765625 C 250.773438 193.8125 251.21875 193.898438 251.65625 194.03125 C 252.089844 194.160156 252.511719 194.335938 252.910156 194.546875 C 253.3125 194.761719 253.691406 195.011719 254.042969 195.300781 C 254.394531 195.585938 254.714844 195.90625 255.003906 196.253906 C 255.292969 196.605469 255.542969 196.980469 255.757812 197.378906 C 255.972656 197.777344 256.144531 198.195312 256.277344 198.628906 C 256.410156 199.058594 256.5 199.503906 256.542969 199.953125 C 256.585938 200.402344 256.585938 200.851562 256.542969 201.304688 C 256.496094 201.753906 256.410156 202.195312 256.277344 202.628906 C 256.144531 203.0625 255.96875 203.476562 255.753906 203.878906 C 255.539062 204.277344 255.289062 204.652344 255 205 C 254.710938 205.351562 254.390625 205.667969 254.039062 205.957031 C 253.683594 206.242188 253.308594 206.492188 252.90625 206.707031 C 252.503906 206.917969 252.085938 207.089844 251.648438 207.222656 C 251.214844 207.351562 250.769531 207.441406 250.316406 207.484375 C 249.863281 207.527344 249.410156 207.527344 248.957031 207.484375 C 248.503906 207.441406 248.058594 207.351562 247.621094 207.21875 C 247.1875 207.089844 246.765625 206.914062 246.367188 206.703125 C 245.964844 206.488281 245.585938 206.238281 245.234375 205.953125 C 244.882812 205.664062 244.5625 205.34375 244.273438 204.996094 C 243.984375 204.644531 243.734375 204.269531 243.519531 203.871094 C 243.304688 203.472656 243.128906 203.054688 243 202.625 C 242.867188 202.191406 242.777344 201.75 242.734375 201.296875 C 242.6875 200.847656 242.6875 200.398438 242.734375 199.945312 C 242.777344 199.496094 242.867188 199.054688 243 198.621094 C 243.132812 198.1875 243.304688 197.773438 243.519531 197.375 C 243.734375 196.972656 243.988281 196.601562 244.277344 196.25 C 244.566406 195.902344 244.886719 195.582031 245.238281 195.296875 C 245.589844 195.007812 245.96875 194.757812 246.371094 194.546875 C 246.773438 194.332031 247.191406 194.160156 247.628906 194.027344 C 248.0625 193.898438 248.507812 193.808594 248.960938 193.765625 C 249.414062 193.722656 249.867188 193.722656 250.320312 193.765625 Z M 250.320312 193.765625 " fill-opacity="1" fill-rule="nonzero"/></g><g clip-path="url(#095526f69d)"><path fill="#38b6ff" d="M 252.085938 247.441406 C 251.273438 247.085938 250.554688 246.59375 249.925781 245.96875 C 249.246094 245.289062 248.722656 244.503906 248.359375 243.613281 C 247.996094 242.726562 247.816406 241.800781 247.824219 240.84375 L 247.824219 227.316406 C 247.824219 226.851562 247.867188 226.390625 247.960938 225.929688 C 248.050781 225.472656 248.1875 225.03125 248.367188 224.597656 C 248.546875 224.167969 248.765625 223.757812 249.027344 223.371094 C 249.289062 222.984375 249.585938 222.625 249.917969 222.296875 C 250.246094 221.964844 250.609375 221.671875 251 221.414062 C 251.390625 221.152344 251.800781 220.933594 252.234375 220.757812 C 252.667969 220.578125 253.117188 220.441406 253.574219 220.351562 C 254.035156 220.261719 254.5 220.214844 254.96875 220.214844 C 255.199219 220.214844 255.40625 220.152344 255.597656 220.023438 C 255.785156 219.898438 255.921875 219.726562 256.007812 219.519531 C 256.09375 219.308594 256.113281 219.089844 256.066406 218.867188 C 256.015625 218.648438 255.910156 218.457031 255.746094 218.300781 C 254.890625 217.488281 254.230469 216.539062 253.765625 215.457031 C 253.300781 214.375 253.070312 213.246094 253.074219 212.070312 C 253.074219 211.570312 253.117188 211.074219 253.203125 210.578125 L 242.785156 210.578125 C 242.433594 210.578125 242.085938 210.613281 241.746094 210.683594 C 241.402344 210.75 241.066406 210.851562 240.746094 210.984375 C 240.421875 211.117188 240.113281 211.28125 239.824219 211.472656 C 239.53125 211.664062 239.261719 211.886719 239.015625 212.132812 C 238.769531 212.378906 238.546875 212.644531 238.351562 212.933594 C 238.15625 213.222656 237.992188 213.527344 237.859375 213.847656 C 237.726562 214.171875 237.625 214.5 237.554688 214.84375 C 237.488281 215.183594 237.453125 215.527344 237.453125 215.875 L 237.453125 229.5 C 237.453125 229.84375 237.488281 230.1875 237.554688 230.523438 C 237.621094 230.863281 237.71875 231.191406 237.851562 231.507812 C 237.984375 231.828125 238.144531 232.128906 238.335938 232.417969 C 238.527344 232.703125 238.742188 232.972656 238.988281 233.214844 C 239.230469 233.460938 239.496094 233.679688 239.78125 233.875 C 240.066406 234.070312 240.371094 234.234375 240.6875 234.371094 C 241.007812 234.503906 241.335938 234.609375 241.675781 234.679688 C 242.015625 234.75 242.355469 234.789062 242.703125 234.796875 L 242.703125 245.253906 C 242.703125 245.601562 242.738281 245.945312 242.804688 246.285156 C 242.875 246.628906 242.976562 246.957031 243.109375 247.28125 C 243.242188 247.601562 243.40625 247.90625 243.601562 248.195312 C 243.796875 248.484375 244.019531 248.753906 244.265625 248.996094 C 244.511719 249.242188 244.78125 249.464844 245.074219 249.65625 C 245.363281 249.847656 245.671875 250.011719 245.996094 250.144531 C 246.316406 250.277344 246.652344 250.378906 246.996094 250.445312 C 247.335938 250.515625 247.683594 250.546875 248.035156 250.546875 L 251.25 250.546875 C 251.355469 250.546875 251.460938 250.546875 251.566406 250.539062 C 251.773438 250.527344 251.96875 250.476562 252.152344 250.386719 C 252.339844 250.300781 252.503906 250.179688 252.640625 250.03125 C 252.78125 249.878906 252.890625 249.710938 252.964844 249.519531 C 253.039062 249.332031 253.074219 249.132812 253.074219 248.929688 C 253.074219 248.605469 252.980469 248.308594 252.804688 248.039062 C 252.625 247.769531 252.386719 247.570312 252.085938 247.441406 Z M 252.085938 247.441406 " fill-opacity="1" fill-rule="nonzero"/></g><g clip-path="url(#d74187ef62)"><path fill="#38b6ff" d="M 280.875 210.578125 L 270.453125 210.578125 C 270.578125 211.277344 270.613281 211.980469 270.5625 212.691406 C 270.511719 213.398438 270.378906 214.089844 270.15625 214.765625 C 269.933594 215.441406 269.632812 216.078125 269.253906 216.679688 C 268.875 217.28125 268.425781 217.828125 267.914062 218.320312 C 267.195312 219.011719 267.691406 220.214844 268.691406 220.214844 C 269.160156 220.214844 269.625 220.261719 270.085938 220.351562 C 270.542969 220.441406 270.992188 220.578125 271.425781 220.757812 C 271.859375 220.933594 272.269531 221.152344 272.660156 221.414062 C 273.050781 221.671875 273.414062 221.964844 273.742188 222.296875 C 274.074219 222.625 274.371094 222.984375 274.632812 223.371094 C 274.894531 223.757812 275.113281 224.167969 275.292969 224.597656 C 275.472656 225.03125 275.609375 225.472656 275.699219 225.929688 C 275.792969 226.390625 275.835938 226.851562 275.835938 227.316406 L 275.835938 240.84375 C 275.84375 241.800781 275.664062 242.726562 275.300781 243.613281 C 274.9375 244.503906 274.414062 245.289062 273.734375 245.96875 C 273.105469 246.59375 272.386719 247.085938 271.574219 247.441406 C 271.273438 247.570312 271.035156 247.769531 270.855469 248.039062 C 270.679688 248.308594 270.585938 248.605469 270.585938 248.925781 C 270.585938 249.136719 270.625 249.335938 270.703125 249.527344 C 270.78125 249.722656 270.894531 249.894531 271.039062 250.042969 C 271.183594 250.195312 271.351562 250.3125 271.539062 250.398438 C 271.730469 250.484375 271.929688 250.53125 272.140625 250.542969 C 272.226562 250.546875 272.320312 250.546875 272.410156 250.546875 L 275.625 250.546875 C 275.976562 250.546875 276.320312 250.515625 276.664062 250.445312 C 277.007812 250.378906 277.34375 250.277344 277.664062 250.144531 C 277.988281 250.011719 278.296875 249.847656 278.585938 249.65625 C 278.878906 249.464844 279.148438 249.242188 279.394531 248.996094 C 279.640625 248.753906 279.863281 248.484375 280.058594 248.195312 C 280.253906 247.90625 280.417969 247.601562 280.550781 247.28125 C 280.683594 246.957031 280.785156 246.628906 280.855469 246.285156 C 280.921875 245.945312 280.957031 245.601562 280.957031 245.253906 L 280.957031 234.792969 C 281.304688 234.789062 281.644531 234.75 281.984375 234.679688 C 282.324219 234.609375 282.652344 234.503906 282.972656 234.367188 C 283.289062 234.234375 283.59375 234.070312 283.878906 233.875 C 284.164062 233.679688 284.429688 233.460938 284.671875 233.214844 C 284.917969 232.96875 285.132812 232.703125 285.324219 232.417969 C 285.515625 232.128906 285.675781 231.828125 285.808594 231.507812 C 285.941406 231.1875 286.039062 230.859375 286.105469 230.523438 C 286.171875 230.183594 286.207031 229.84375 286.207031 229.5 L 286.207031 215.875 C 286.207031 215.527344 286.171875 215.183594 286.105469 214.839844 C 286.035156 214.5 285.933594 214.167969 285.800781 213.847656 C 285.667969 213.527344 285.503906 213.222656 285.308594 212.933594 C 285.113281 212.644531 284.890625 212.375 284.644531 212.128906 C 284.398438 211.882812 284.128906 211.664062 283.835938 211.472656 C 283.546875 211.277344 283.238281 211.113281 282.914062 210.980469 C 282.589844 210.847656 282.257812 210.75 281.914062 210.679688 C 281.570312 210.613281 281.226562 210.578125 280.875 210.578125 Z M 280.875 210.578125 " fill-opacity="1" fill-rule="nonzero"/></g><path fill="#38b6ff" d="M 268.6875 222.019531 L 254.972656 222.019531 C 254.621094 222.019531 254.277344 222.054688 253.933594 222.121094 C 253.589844 222.191406 253.253906 222.292969 252.933594 222.425781 C 252.609375 222.558594 252.300781 222.71875 252.011719 222.914062 C 251.71875 223.105469 251.449219 223.328125 251.203125 223.574219 C 250.957031 223.816406 250.734375 224.085938 250.539062 224.375 C 250.34375 224.664062 250.179688 224.96875 250.046875 225.289062 C 249.914062 225.613281 249.8125 225.941406 249.742188 226.285156 C 249.675781 226.625 249.640625 226.96875 249.640625 227.316406 L 249.640625 240.941406 C 249.640625 241.285156 249.675781 241.628906 249.742188 241.964844 C 249.808594 242.304688 249.910156 242.632812 250.039062 242.949219 C 250.171875 243.269531 250.332031 243.570312 250.523438 243.859375 C 250.714844 244.144531 250.929688 244.414062 251.175781 244.65625 C 251.417969 244.902344 251.683594 245.121094 251.96875 245.316406 C 252.253906 245.511719 252.558594 245.675781 252.875 245.8125 C 253.195312 245.945312 253.523438 246.050781 253.863281 246.121094 C 254.203125 246.191406 254.546875 246.230469 254.890625 246.238281 L 254.890625 256.695312 C 254.890625 257.042969 254.925781 257.386719 254.996094 257.726562 C 255.0625 258.070312 255.164062 258.402344 255.296875 258.722656 C 255.429688 259.042969 255.59375 259.347656 255.789062 259.636719 C 255.984375 259.925781 256.207031 260.195312 256.453125 260.441406 C 256.699219 260.6875 256.96875 260.90625 257.261719 261.097656 C 257.550781 261.292969 257.859375 261.453125 258.183594 261.585938 C 258.503906 261.722656 258.839844 261.820312 259.183594 261.890625 C 259.527344 261.957031 259.871094 261.992188 260.222656 261.992188 L 263.4375 261.992188 C 263.785156 261.992188 264.132812 261.957031 264.476562 261.890625 C 264.820312 261.820312 265.152344 261.722656 265.476562 261.585938 C 265.800781 261.453125 266.105469 261.292969 266.398438 261.097656 C 266.6875 260.90625 266.957031 260.6875 267.207031 260.441406 C 267.453125 260.195312 267.675781 259.925781 267.867188 259.636719 C 268.0625 259.347656 268.226562 259.042969 268.363281 258.722656 C 268.496094 258.402344 268.597656 258.070312 268.664062 257.726562 C 268.734375 257.386719 268.765625 257.042969 268.765625 256.695312 L 268.765625 246.238281 C 269.113281 246.230469 269.457031 246.191406 269.796875 246.121094 C 270.136719 246.050781 270.464844 245.945312 270.78125 245.8125 C 271.101562 245.675781 271.402344 245.511719 271.691406 245.316406 C 271.976562 245.121094 272.242188 244.902344 272.484375 244.65625 C 272.726562 244.414062 272.945312 244.144531 273.136719 243.859375 C 273.328125 243.570312 273.488281 243.269531 273.621094 242.949219 C 273.75 242.632812 273.851562 242.304688 273.917969 241.964844 C 273.984375 241.628906 274.015625 241.285156 274.015625 240.941406 L 274.015625 227.316406 C 274.015625 226.96875 273.984375 226.625 273.914062 226.285156 C 273.847656 225.941406 273.746094 225.613281 273.613281 225.289062 C 273.476562 224.96875 273.3125 224.664062 273.121094 224.375 C 272.925781 224.085938 272.703125 223.816406 272.457031 223.570312 C 272.207031 223.328125 271.9375 223.105469 271.648438 222.914062 C 271.355469 222.71875 271.050781 222.558594 270.726562 222.425781 C 270.402344 222.292969 270.070312 222.191406 269.726562 222.121094 C 269.382812 222.054688 269.035156 222.019531 268.6875 222.019531 Z M 268.6875 222.019531 " fill-opacity="1" fill-rule="nonzero"/><path fill="#38b6ff" d="M 268.765625 212.070312 C 268.765625 212.519531 268.722656 212.96875 268.632812 213.414062 C 268.546875 213.855469 268.414062 214.289062 268.238281 214.707031 C 268.066406 215.125 267.851562 215.523438 267.597656 215.898438 C 267.34375 216.273438 267.058594 216.621094 266.734375 216.941406 C 266.414062 217.261719 266.0625 217.546875 265.683594 217.800781 C 265.304688 218.050781 264.90625 218.261719 264.484375 218.4375 C 264.0625 218.609375 263.628906 218.742188 263.183594 218.828125 C 262.734375 218.917969 262.285156 218.960938 261.828125 218.960938 C 261.375 218.960938 260.921875 218.917969 260.476562 218.828125 C 260.027344 218.742188 259.59375 218.609375 259.175781 218.4375 C 258.753906 218.261719 258.355469 218.050781 257.976562 217.800781 C 257.597656 217.546875 257.246094 217.261719 256.921875 216.941406 C 256.601562 216.621094 256.3125 216.273438 256.0625 215.898438 C 255.808594 215.523438 255.59375 215.125 255.417969 214.707031 C 255.246094 214.289062 255.113281 213.855469 255.023438 213.414062 C 254.9375 212.96875 254.890625 212.519531 254.890625 212.070312 C 254.890625 211.617188 254.9375 211.167969 255.023438 210.722656 C 255.113281 210.28125 255.246094 209.847656 255.417969 209.429688 C 255.59375 209.011719 255.808594 208.617188 256.0625 208.238281 C 256.3125 207.863281 256.601562 207.515625 256.921875 207.195312 C 257.246094 206.875 257.597656 206.589844 257.976562 206.335938 C 258.355469 206.085938 258.753906 205.875 259.175781 205.699219 C 259.59375 205.527344 260.027344 205.398438 260.476562 205.308594 C 260.921875 205.21875 261.375 205.175781 261.828125 205.175781 C 262.285156 205.175781 262.734375 205.21875 263.183594 205.308594 C 263.628906 205.398438 264.0625 205.527344 264.484375 205.699219 C 264.90625 205.875 265.304688 206.085938 265.683594 206.335938 C 266.0625 206.589844 266.414062 206.875 266.734375 207.195312 C 267.058594 207.515625 267.34375 207.863281 267.597656 208.238281 C 267.851562 208.617188 268.066406 209.011719 268.238281 209.429688 C 268.414062 209.847656 268.546875 210.28125 268.632812 210.722656 C 268.722656 211.167969 268.765625 211.617188 268.765625 212.070312 Z M 268.765625 212.070312 " fill-opacity="1" fill-rule="nonzero"/><g clip-path="url(#1dbe2cf2f6)"><path fill="#38b6ff" d="M 128.25 214.953125 L 63.613281 214.953125 C 63.269531 214.953125 62.925781 214.917969 62.585938 214.851562 C 62.25 214.785156 61.921875 214.683594 61.601562 214.554688 C 61.28125 214.421875 60.980469 214.261719 60.691406 214.070312 C 60.40625 213.878906 60.140625 213.660156 59.894531 213.417969 C 59.652344 213.171875 59.433594 212.90625 59.242188 212.621094 C 59.050781 212.335938 58.890625 212.035156 58.757812 211.714844 C 58.625 211.398438 58.523438 211.070312 58.457031 210.730469 C 58.390625 210.394531 58.355469 210.054688 58.355469 209.707031 L 58.355469 158.207031 C 58.355469 157.949219 58.449219 157.726562 58.632812 157.542969 C 58.816406 157.359375 59.035156 157.269531 59.296875 157.269531 C 62.691406 157.167969 65.460938 155.257812 65.460938 153 C 65.453125 150.210938 65.960938 147.515625 66.980469 144.917969 L 70.734375 135.300781 C 70.808594 135.121094 70.925781 134.976562 71.085938 134.871094 C 71.246094 134.761719 71.425781 134.710938 71.617188 134.710938 L 120.234375 134.710938 C 120.429688 134.710938 120.605469 134.761719 120.765625 134.871094 C 120.929688 134.976562 121.042969 135.121094 121.117188 135.300781 L 125.375 146.125 C 126.082031 147.90625 126.429688 149.753906 126.429688 151.671875 L 126.429688 153.019531 C 126.429688 155.273438 129.1875 157.183594 132.585938 157.289062 C 132.84375 157.289062 133.066406 157.378906 133.25 157.5625 C 133.429688 157.746094 133.523438 157.964844 133.523438 158.226562 L 133.523438 209.726562 C 133.519531 210.070312 133.484375 210.410156 133.417969 210.75 C 133.347656 211.085938 133.246094 211.414062 133.113281 211.730469 C 132.980469 212.046875 132.816406 212.351562 132.625 212.636719 C 132.429688 212.921875 132.210938 213.183594 131.96875 213.425781 C 131.722656 213.667969 131.457031 213.886719 131.167969 214.074219 C 130.882812 214.265625 130.578125 214.425781 130.261719 214.558594 C 129.941406 214.6875 129.613281 214.789062 129.273438 214.855469 C 128.933594 214.921875 128.59375 214.953125 128.25 214.953125 Z M 60.261719 159.09375 L 60.261719 209.707031 C 60.261719 210.15625 60.347656 210.585938 60.519531 211 C 60.691406 211.410156 60.933594 211.777344 61.25 212.09375 C 61.570312 212.410156 61.933594 212.652344 62.347656 212.824219 C 62.761719 212.992188 63.191406 213.078125 63.640625 213.078125 L 128.25 213.078125 C 128.695312 213.078125 129.125 212.992188 129.539062 212.820312 C 129.953125 212.648438 130.320312 212.40625 130.636719 212.089844 C 130.953125 211.773438 131.195312 211.410156 131.367188 210.996094 C 131.539062 210.585938 131.625 210.15625 131.628906 209.707031 L 131.628906 159.140625 C 127.589844 158.703125 124.550781 156.144531 124.550781 153.066406 L 124.550781 151.6875 C 124.550781 150.011719 124.234375 148.394531 123.613281 146.839844 L 119.578125 136.601562 L 72.265625 136.601562 L 68.707031 145.621094 C 67.773438 147.988281 67.308594 150.445312 67.308594 152.992188 C 67.308594 156.109375 64.261719 158.65625 60.261719 159.09375 Z M 60.261719 159.09375 " fill-opacity="1" fill-rule="nonzero"/></g><path fill="#38b6ff" d="M 122.375 200.90625 L 69.476562 200.90625 C 69.003906 200.902344 68.546875 200.808594 68.109375 200.621094 C 67.667969 200.4375 67.28125 200.175781 66.949219 199.839844 C 66.613281 199.503906 66.351562 199.117188 66.171875 198.679688 C 65.988281 198.242188 65.894531 197.785156 65.894531 197.308594 L 65.894531 167.269531 C 65.894531 166.792969 65.984375 166.332031 66.167969 165.890625 C 66.351562 165.445312 66.613281 165.058594 66.949219 164.71875 C 67.289062 164.378906 67.679688 164.117188 68.125 163.933594 C 68.566406 163.75 69.027344 163.65625 69.507812 163.65625 L 122.375 163.65625 C 122.851562 163.664062 123.308594 163.757812 123.746094 163.945312 C 124.1875 164.128906 124.574219 164.390625 124.910156 164.730469 C 125.242188 165.070312 125.503906 165.457031 125.683594 165.898438 C 125.867188 166.335938 125.957031 166.792969 125.957031 167.269531 L 125.957031 197.308594 C 125.957031 197.785156 125.863281 198.242188 125.679688 198.679688 C 125.496094 199.117188 125.238281 199.503906 124.902344 199.839844 C 124.566406 200.175781 124.179688 200.433594 123.742188 200.621094 C 123.304688 200.804688 122.847656 200.898438 122.375 200.90625 Z M 69.476562 165.527344 C 69.25 165.535156 69.03125 165.582031 68.820312 165.671875 C 68.613281 165.761719 68.429688 165.890625 68.269531 166.050781 C 68.109375 166.214844 67.984375 166.402344 67.898438 166.613281 C 67.8125 166.824219 67.769531 167.042969 67.769531 167.269531 L 67.769531 197.308594 C 67.769531 197.539062 67.8125 197.761719 67.902344 197.976562 C 67.992188 198.1875 68.117188 198.375 68.277344 198.539062 C 68.441406 198.703125 68.628906 198.828125 68.839844 198.917969 C 69.054688 199.003906 69.277344 199.050781 69.507812 199.050781 L 122.375 199.050781 C 122.601562 199.046875 122.820312 198.996094 123.027344 198.90625 C 123.238281 198.816406 123.421875 198.6875 123.582031 198.527344 C 123.742188 198.363281 123.863281 198.175781 123.949219 197.96875 C 124.035156 197.757812 124.082031 197.539062 124.082031 197.308594 L 124.082031 167.269531 C 124.082031 167.039062 124.035156 166.816406 123.945312 166.605469 C 123.855469 166.394531 123.730469 166.203125 123.566406 166.042969 C 123.402344 165.878906 123.214844 165.753906 123.003906 165.664062 C 122.789062 165.574219 122.566406 165.53125 122.335938 165.527344 Z M 69.476562 165.527344 " fill-opacity="1" fill-rule="nonzero"/><g clip-path="url(#e189b95ef7)"><path fill="#38b6ff" d="M 58.984375 159.171875 C 54.386719 159.171875 50.652344 156.363281 50.652344 153.019531 C 50.652344 150.167969 51.375 147.515625 52.820312 145.058594 L 57.304688 137.472656 C 57.671875 136.851562 58.144531 136.320312 58.722656 135.882812 C 59.730469 135.113281 60.871094 134.730469 62.140625 134.730469 L 71.628906 134.730469 C 71.953125 134.730469 72.210938 134.863281 72.398438 135.132812 C 72.585938 135.40625 72.621094 135.695312 72.5 136.003906 L 68.707031 145.621094 C 67.773438 147.988281 67.308594 150.445312 67.308594 152.992188 C 67.308594 156.332031 63.800781 159.03125 59.3125 159.160156 Z M 62.140625 136.601562 C 61.296875 136.601562 60.542969 136.855469 59.878906 137.371094 C 59.496094 137.65625 59.179688 138.007812 58.9375 138.417969 L 54.445312 146.015625 C 53.175781 148.179688 52.550781 150.511719 52.566406 153.019531 C 52.566406 155.339844 55.523438 157.296875 59.023438 157.296875 L 59.238281 157.296875 C 62.703125 157.195312 65.472656 155.285156 65.472656 153.027344 C 65.464844 150.238281 65.96875 147.542969 66.992188 144.945312 L 70.285156 136.613281 Z M 62.140625 136.601562 " fill-opacity="1" fill-rule="nonzero"/></g><g clip-path="url(#69166d26ce)"><path fill="#38b6ff" d="M 88.539062 159.171875 C 83.941406 159.171875 80.207031 156.363281 80.207031 153.019531 L 80.207031 150.894531 C 80.207031 149.566406 80.335938 148.253906 80.589844 146.949219 L 82.851562 135.507812 C 82.894531 135.285156 83.007812 135.101562 83.183594 134.957031 C 83.359375 134.816406 83.5625 134.746094 83.789062 134.75 L 95.925781 134.75 C 96.183594 134.75 96.40625 134.839844 96.589844 135.023438 C 96.773438 135.207031 96.863281 135.425781 96.863281 135.6875 L 96.863281 153.019531 C 96.863281 156.464844 93.203125 159.171875 88.539062 159.171875 Z M 84.542969 136.601562 L 82.441406 147.304688 C 82.203125 148.488281 82.085938 149.6875 82.082031 150.894531 L 82.082031 153.019531 C 82.082031 155.339844 85.039062 157.296875 88.539062 157.296875 C 92.039062 157.296875 94.988281 155.378906 94.988281 153.019531 L 94.988281 136.601562 Z M 84.542969 136.601562 " fill-opacity="1" fill-rule="nonzero"/></g><g clip-path="url(#af7ff5d817)"><path fill="#38b6ff" d="M 118.09375 159.171875 C 113.503906 159.171875 109.769531 156.363281 109.769531 153.019531 C 109.769531 150.398438 109.515625 147.800781 109.007812 145.226562 L 107.132812 135.863281 C 107.074219 135.574219 107.140625 135.3125 107.328125 135.085938 C 107.515625 134.855469 107.757812 134.742188 108.050781 134.738281 L 120.253906 134.738281 C 120.445312 134.742188 120.621094 134.796875 120.78125 134.90625 C 120.941406 135.015625 121.054688 135.160156 121.125 135.339844 L 125.394531 146.15625 C 126.097656 147.9375 126.449219 149.785156 126.445312 151.699219 L 126.445312 153.019531 C 126.429688 156.464844 122.769531 159.171875 118.09375 159.171875 Z M 109.226562 136.601562 L 110.847656 144.871094 C 111.382812 147.5625 111.648438 150.28125 111.644531 153.027344 C 111.644531 155.351562 114.601562 157.308594 118.09375 157.308594 C 121.585938 157.308594 124.550781 155.386719 124.550781 153.027344 L 124.550781 151.6875 C 124.546875 150.007812 124.234375 148.390625 123.613281 146.828125 L 119.578125 136.601562 Z M 109.226562 136.601562 " fill-opacity="1" fill-rule="nonzero"/></g><g clip-path="url(#6fbb6a5389)"><path fill="#38b6ff" d="M 84.496094 135.066406 C 84.683594 135.296875 84.75 135.554688 84.691406 135.84375 L 82.429688 147.304688 C 82.195312 148.492188 82.082031 149.6875 82.082031 150.894531 L 82.082031 153.007812 C 82.082031 156.464844 78.421875 159.171875 73.75 159.171875 C 69.074219 159.171875 65.425781 156.363281 65.425781 153.007812 C 65.421875 150.21875 65.929688 147.523438 66.953125 144.929688 L 70.707031 135.320312 C 70.777344 135.140625 70.894531 135 71.054688 134.890625 C 71.210938 134.785156 71.386719 134.730469 71.582031 134.730469 L 83.773438 134.730469 C 84.066406 134.730469 84.308594 134.84375 84.496094 135.066406 Z M 84.496094 135.066406 " fill-opacity="1" fill-rule="nonzero"/></g><g clip-path="url(#9db07be8e0)"><path fill="#38b6ff" d="M 110.847656 144.871094 C 111.378906 147.5625 111.644531 150.277344 111.644531 153.019531 C 111.644531 156.472656 107.984375 159.179688 103.3125 159.179688 C 98.636719 159.179688 94.988281 156.410156 94.988281 153.007812 L 94.988281 135.667969 C 94.988281 135.410156 95.078125 135.1875 95.261719 135.003906 C 95.445312 134.820312 95.667969 134.730469 95.925781 134.730469 L 108.125 134.730469 C 108.355469 134.726562 108.558594 134.796875 108.734375 134.9375 C 108.910156 135.082031 109.023438 135.265625 109.066406 135.488281 Z M 110.847656 144.871094 " fill-opacity="1" fill-rule="nonzero"/></g><g clip-path="url(#2a64a0838c)"><path fill="#38b6ff" d="M 141.199219 153.007812 C 141.167969 153.917969 140.929688 154.765625 140.476562 155.550781 C 140.023438 156.339844 139.414062 156.980469 138.648438 157.464844 C 136.902344 158.640625 134.980469 159.207031 132.875 159.171875 L 132.460938 159.171875 C 128.050781 159.050781 124.542969 156.363281 124.542969 153.027344 L 124.542969 151.679688 C 124.539062 150.003906 124.226562 148.386719 123.601562 146.828125 L 119.390625 136.003906 C 119.332031 135.859375 119.3125 135.710938 119.328125 135.554688 C 119.34375 135.402344 119.398438 135.261719 119.484375 135.132812 C 119.570312 135.003906 119.683594 134.902344 119.820312 134.828125 C 119.960938 134.757812 120.105469 134.722656 120.261719 134.722656 L 129.710938 134.722656 C 130.980469 134.714844 132.113281 135.101562 133.109375 135.882812 C 133.683594 136.320312 134.15625 136.847656 134.527344 137.464844 L 139.003906 145.058594 C 140.464844 147.507812 141.195312 150.160156 141.199219 153.007812 Z M 141.199219 153.007812 " fill-opacity="1" fill-rule="nonzero"/></g><path fill="#38b6ff" d="M 109.796875 199.960938 C 109.796875 200.21875 109.707031 200.441406 109.523438 200.621094 C 109.339844 200.804688 109.117188 200.898438 108.859375 200.898438 L 82.984375 200.898438 C 82.726562 200.898438 82.503906 200.804688 82.320312 200.621094 C 82.136719 200.441406 82.046875 200.21875 82.046875 199.960938 C 82.070312 199.066406 82.175781 198.183594 82.371094 197.308594 C 82.566406 196.4375 82.84375 195.589844 83.203125 194.773438 C 83.5625 193.953125 83.996094 193.175781 84.507812 192.441406 C 85.015625 191.703125 85.59375 191.023438 86.234375 190.402344 C 86.875 189.777344 87.574219 189.21875 88.324219 188.730469 C 89.074219 188.242188 89.863281 187.828125 90.691406 187.492188 C 91.523438 187.15625 92.378906 186.898438 93.257812 186.730469 C 94.136719 186.558594 95.023438 186.472656 95.921875 186.472656 C 96.816406 186.472656 97.707031 186.558594 98.585938 186.730469 C 99.464844 186.898438 100.320312 187.15625 101.148438 187.492188 C 101.980469 187.828125 102.769531 188.242188 103.519531 188.730469 C 104.269531 189.21875 104.964844 189.777344 105.609375 190.402344 C 106.25 191.023438 106.824219 191.703125 107.335938 192.441406 C 107.847656 193.175781 108.28125 193.953125 108.640625 194.773438 C 109 195.589844 109.277344 196.4375 109.46875 197.308594 C 109.664062 198.183594 109.773438 199.066406 109.796875 199.960938 Z M 109.796875 199.960938 " fill-opacity="1" fill-rule="nonzero"/><path fill="#38b6ff" d="M 88.792969 177.851562 C 88.792969 177.382812 88.839844 176.921875 88.929688 176.464844 C 89.023438 176.003906 89.15625 175.558594 89.335938 175.128906 C 89.515625 174.695312 89.734375 174.285156 89.996094 173.898438 C 90.253906 173.507812 90.550781 173.148438 90.882812 172.820312 C 91.214844 172.488281 91.574219 172.195312 91.964844 171.933594 C 92.351562 171.675781 92.765625 171.457031 93.195312 171.277344 C 93.628906 171.097656 94.074219 170.964844 94.535156 170.871094 C 94.992188 170.78125 95.457031 170.734375 95.925781 170.734375 C 96.394531 170.734375 96.859375 170.78125 97.316406 170.871094 C 97.777344 170.964844 98.222656 171.097656 98.65625 171.277344 C 99.089844 171.457031 99.5 171.675781 99.890625 171.933594 C 100.277344 172.195312 100.636719 172.488281 100.96875 172.820312 C 101.300781 173.148438 101.597656 173.507812 101.855469 173.898438 C 102.117188 174.285156 102.335938 174.695312 102.515625 175.128906 C 102.695312 175.558594 102.832031 176.003906 102.921875 176.464844 C 103.011719 176.921875 103.058594 177.382812 103.058594 177.851562 C 103.058594 178.320312 103.011719 178.78125 102.921875 179.242188 C 102.832031 179.699219 102.695312 180.144531 102.515625 180.574219 C 102.335938 181.007812 102.117188 181.417969 101.855469 181.804688 C 101.597656 182.195312 101.300781 182.554688 100.96875 182.882812 C 100.636719 183.214844 100.277344 183.507812 99.890625 183.769531 C 99.5 184.027344 99.089844 184.246094 98.65625 184.425781 C 98.222656 184.605469 97.777344 184.742188 97.316406 184.832031 C 96.859375 184.921875 96.394531 184.96875 95.925781 184.96875 C 95.457031 184.96875 94.992188 184.921875 94.535156 184.832031 C 94.074219 184.742188 93.628906 184.605469 93.195312 184.425781 C 92.765625 184.246094 92.351562 184.027344 91.964844 183.769531 C 91.574219 183.507812 91.214844 183.214844 90.882812 182.882812 C 90.550781 182.554688 90.253906 182.195312 89.996094 181.804688 C 89.734375 181.417969 89.515625 181.007812 89.335938 180.574219 C 89.15625 180.144531 89.023438 179.699219 88.929688 179.242188 C 88.839844 178.78125 88.792969 178.320312 88.792969 177.851562 Z M 88.792969 177.851562 " fill-opacity="1" fill-rule="nonzero"/><path stroke-linecap="butt" transform="matrix(0.000000000000000046, 0.750239, -0.75, 0.000000000000000046, 308.315667, 17.283416)" fill="none" stroke-linejoin="miter" d="M 0.00232025 1.999015 L 441.872117 1.999015 " stroke="#000000" stroke-width="4" stroke-opacity="1" stroke-miterlimit="4"/><path stroke-linecap="butt" transform="matrix(0.000000000000000046, 0.750239, -0.75, 0.000000000000000046, 37.494465, 17.283416)" fill="none" stroke-linejoin="miter" d="M 0.00232025 1.997828 L 441.872117 1.997828 " stroke="#000000" stroke-width="4" stroke-opacity="1" stroke-miterlimit="4"/><path stroke-linecap="butt" transform="matrix(-0.749807, -0.000000000000000092, 0.000000000000000092, -0.75, 308.320297, 18.777873)" fill="none" stroke-linejoin="miter" d="M -0.0000206004 2.000706 L 365.093759 2.000706 " stroke="#000000" stroke-width="4" stroke-opacity="1" stroke-miterlimit="4"/><path stroke-linecap="butt" transform="matrix(-0.749807, -0.000000000000000092, 0.000000000000000092, -0.75, 308.320297, 348.683473)" fill="none" stroke-linejoin="miter" d="M -0.0000206004 1.999839 L 365.093759 1.999839 " stroke="#000000" stroke-width="4" stroke-opacity="1" stroke-miterlimit="4"/></svg>