<svg xmlns="http://www.w3.org/2000/svg" xmlns:xlink="http://www.w3.org/1999/xlink" width="500" zoomAndPan="magnify" viewBox="0 0 375 374.999991" height="500" preserveAspectRatio="xMidYMid meet" version="1.0"><defs><clipPath id="4ed305f87a"><path d="M 44.363281 37.5 L 214 37.5 L 214 182 L 44.363281 182 Z M 44.363281 37.5 " clip-rule="nonzero"/></clipPath><clipPath id="05c00363ec"><path d="M 159 84 L 298.613281 84 L 298.613281 200 L 159 200 Z M 159 84 " clip-rule="nonzero"/></clipPath><clipPath id="c1294d8402"><path d="M 76.589844 50 L 135 50 L 135 137 L 76.589844 137 Z M 76.589844 50 " clip-rule="nonzero"/></clipPath><clipPath id="03b01bab8c"><path d="M 76.589844 49 L 137 49 L 137 138 L 76.589844 138 Z M 76.589844 49 " clip-rule="nonzero"/></clipPath><clipPath id="d1e146c9d1"><path d="M 235.15625 72.539062 L 292.90625 72.539062 L 292.90625 131.789062 L 235.15625 131.789062 Z M 235.15625 72.539062 " clip-rule="nonzero"/></clipPath><clipPath id="17518f726c"><path d="M 212.683594 153.683594 L 282.429688 153.683594 L 282.429688 243.304688 L 212.683594 243.304688 Z M 212.683594 153.683594 " clip-rule="nonzero"/></clipPath></defs><path stroke-linecap="butt" transform="matrix(0.000000000000000046, 0.750239, -0.75, 0.000000000000000046, 308.315667, 17.283416)" fill="none" stroke-linejoin="miter" d="M 0.00232025 1.999015 L 441.872117 1.999015 " stroke="#000000" stroke-width="4" stroke-opacity="1" stroke-miterlimit="4"/><path stroke-linecap="butt" transform="matrix(0.000000000000000046, 0.750239, -0.75, 0.000000000000000046, 37.494465, 17.283416)" fill="none" stroke-linejoin="miter" d="M 0.00232025 1.997828 L 441.872117 1.997828 " stroke="#000000" stroke-width="4" stroke-opacity="1" stroke-miterlimit="4"/><path stroke-linecap="butt" transform="matrix(-0.749807, -0.000000000000000092, 0.000000000000000092, -0.75, 308.320297, 18.777873)" fill="none" stroke-linejoin="miter" d="M -0.0000206004 2.000706 L 365.093759 2.000706 " stroke="#000000" stroke-width="4" stroke-opacity="1" stroke-miterlimit="4"/><path stroke-linecap="butt" transform="matrix(-0.749807, -0.000000000000000092, 0.000000000000000092, -0.75, 308.320297, 348.683473)" fill="none" stroke-linejoin="miter" d="M -0.0000206004 1.999839 L 365.093759 1.999839 " stroke="#000000" stroke-width="4" stroke-opacity="1" stroke-miterlimit="4"/><g clip-path="url(#4ed305f87a)"><path fill="#38b6ff" d="M 147.570312 142.632812 L 147.570312 96.6875 C 147.570312 84.8125 156.765625 75.183594 168.109375 75.183594 L 213.050781 75.183594 L 213.050781 64.230469 C 213.050781 49.539062 201.664062 37.625 187.632812 37.625 L 69.78125 37.625 C 55.746094 37.625 44.363281 49.539062 44.363281 64.230469 L 44.363281 121.078125 C 44.363281 135.769531 55.746094 147.6875 69.78125 147.6875 L 89.226562 147.6875 L 89.226562 179.101562 C 89.226562 180.835938 91.605469 182.054688 92.84375 180.601562 C 102.109375 169.628906 111.371094 158.660156 120.640625 147.691406 L 148.164062 147.691406 C 147.785156 146.0625 147.570312 144.378906 147.570312 142.636719 Z M 147.570312 142.632812 " fill-opacity="1" fill-rule="nonzero"/></g><g clip-path="url(#05c00363ec)"><path fill="#38b6ff" d="M 159.230469 104.265625 L 159.230469 155.554688 C 159.230469 166.261719 167.527344 174.949219 177.761719 174.949219 L 226.605469 174.949219 C 233.363281 182.949219 240.113281 190.941406 246.867188 198.941406 C 247.765625 200.007812 249.5 199.113281 249.5 197.851562 L 249.5 174.949219 L 280.085938 174.949219 C 290.320312 174.949219 298.613281 166.261719 298.613281 155.554688 L 298.613281 104.265625 C 298.613281 93.554688 290.320312 84.863281 280.085938 84.863281 L 177.761719 84.863281 C 167.527344 84.863281 159.230469 93.550781 159.230469 104.265625 Z M 159.230469 104.265625 " fill-opacity="1" fill-rule="nonzero"/></g><g clip-path="url(#c1294d8402)"><path fill="#38b6ff" d="M 109.050781 123.121094 C 110.113281 124.589844 112.320312 128.847656 109.035156 133.097656 C 105.121094 138.167969 94.390625 137.453125 94.394531 127.179688 L 94.394531 125.210938 C 97.578125 117.960938 106.109375 118.457031 109.050781 123.121094 Z M 127.945312 59.582031 C 116.164062 46.9375 85.441406 46.136719 78.28125 68.558594 C 76.640625 73.691406 76.679688 79.320312 76.679688 79.320312 L 90.515625 79.121094 C 91.480469 70.15625 96.195312 64.054688 105.859375 65.472656 C 111.476562 66.296875 116.355469 70.765625 114.144531 76.429688 C 112.019531 81.867188 105.566406 80.375 99.199219 88.25 C 93.660156 95.101562 95.359375 109.570312 95.527344 114.285156 L 108.214844 114.628906 C 108.375 110.851562 108.929688 104.714844 110.285156 99.898438 C 111.96875 93.90625 119.308594 91.515625 124.066406 89.324219 C 134.964844 84.308594 138.089844 70.464844 127.945312 59.582031 Z M 127.945312 59.582031 " fill-opacity="1" fill-rule="nonzero"/></g><g clip-path="url(#03b01bab8c)"><path fill="#141313" d="M 111.777344 125.121094 C 112.207031 126.402344 112.433594 127.804688 112.324219 129.226562 C 112.222656 130.648438 111.761719 132.046875 111.058594 133.253906 L 110.789062 133.695312 L 110.496094 134.121094 C 110.398438 134.265625 110.273438 134.410156 110.160156 134.550781 L 109.988281 134.761719 C 109.929688 134.832031 109.863281 134.894531 109.800781 134.960938 C 109.3125 135.503906 108.742188 135.949219 108.148438 136.34375 L 107.691406 136.621094 C 107.535156 136.707031 107.378906 136.785156 107.21875 136.867188 C 107.140625 136.90625 107.0625 136.945312 106.984375 136.980469 L 106.738281 137.082031 C 106.578125 137.148438 106.414062 137.222656 106.25 137.277344 C 105.589844 137.507812 104.90625 137.660156 104.222656 137.742188 C 102.636719 137.910156 101.023438 137.835938 99.484375 137.347656 C 98.71875 137.105469 97.96875 136.773438 97.289062 136.316406 C 96.613281 135.867188 95.996094 135.316406 95.492188 134.683594 C 95.265625 134.378906 94.949219 133.984375 94.644531 133.484375 C 94.5625 133.363281 94.492188 133.230469 94.417969 133.089844 C 94.347656 132.953125 94.273438 132.8125 94.195312 132.667969 C 94.121094 132.519531 94.066406 132.363281 94 132.207031 C 93.9375 132.050781 93.863281 131.890625 93.8125 131.726562 C 93.761719 131.558594 93.710938 131.390625 93.65625 131.21875 C 93.632812 131.132812 93.605469 131.046875 93.582031 130.957031 C 93.566406 130.871094 93.546875 130.78125 93.527344 130.695312 C 93.496094 130.515625 93.460938 130.339844 93.425781 130.160156 C 93.398438 129.980469 93.386719 129.796875 93.367188 129.617188 C 93.355469 129.4375 93.332031 129.253906 93.332031 129.074219 C 93.332031 128.894531 93.332031 128.714844 93.339844 128.535156 C 93.335938 128.179688 93.394531 127.828125 93.441406 127.492188 C 93.464844 127.34375 93.433594 127.183594 93.800781 127.179688 C 94.195312 127.175781 94.34375 127.328125 94.378906 127.492188 C 94.433594 127.746094 94.476562 127.996094 94.542969 128.246094 C 94.605469 128.492188 94.660156 128.738281 94.703125 128.984375 C 94.867188 129.757812 95.09375 130.507812 95.410156 131.210938 C 95.734375 131.914062 96.152344 132.5625 96.65625 133.121094 C 97.660156 134.246094 99.035156 134.976562 100.476562 135.222656 C 101.996094 135.488281 103.574219 135.335938 104.980469 134.792969 C 105.683594 134.523438 106.34375 134.152344 106.910156 133.695312 L 107.121094 133.519531 L 107.316406 133.332031 C 107.382812 133.269531 107.449219 133.210938 107.511719 133.144531 L 107.6875 132.941406 C 107.808594 132.808594 107.910156 132.664062 108.011719 132.519531 C 108.117188 132.382812 108.210938 132.214844 108.308594 132.058594 C 109.140625 130.660156 109.472656 129.144531 109.246094 127.648438 C 109.140625 126.902344 108.90625 126.160156 108.5625 125.460938 C 108.394531 125.109375 108.199219 124.773438 107.984375 124.457031 C 107.929688 124.378906 107.875 124.300781 107.820312 124.226562 L 107.621094 123.964844 L 107.441406 123.726562 C 107.382812 123.652344 107.324219 123.597656 107.265625 123.527344 C 106.570312 122.765625 105.636719 122.203125 104.617188 121.875 C 103.59375 121.542969 102.492188 121.441406 101.421875 121.566406 C 100.96875 121.617188 100.339844 121.695312 99.652344 121.894531 C 98.96875 122.09375 98.230469 122.417969 97.570312 122.84375 C 96.90625 123.269531 96.328125 123.792969 95.90625 124.238281 C 95.796875 124.347656 95.699219 124.453125 95.613281 124.554688 C 95.523438 124.652344 95.441406 124.742188 95.371094 124.816406 C 95.230469 124.972656 95.136719 125.089844 95.074219 125.136719 C 94.945312 125.234375 94.804688 125.4375 94.378906 125.199219 C 93.992188 124.980469 94.023438 124.710938 94.074219 124.519531 L 94.152344 124.265625 L 94.246094 124.015625 C 94.3125 123.847656 94.375 123.679688 94.449219 123.519531 C 94.609375 123.195312 94.769531 122.871094 94.972656 122.570312 C 96.109375 120.753906 98.007812 119.316406 100.171875 118.746094 C 102.332031 118.152344 104.703125 118.359375 106.773438 119.34375 C 107.363281 119.621094 107.933594 119.957031 108.460938 120.363281 C 108.992188 120.769531 109.488281 121.234375 109.921875 121.765625 C 110.023438 121.894531 110.113281 122.023438 110.207031 122.148438 L 110.34375 122.328125 L 110.402344 122.410156 L 110.472656 122.507812 C 110.664062 122.78125 110.839844 123.054688 110.996094 123.335938 C 111.316406 123.902344 111.582031 124.496094 111.777344 125.121094 Z M 135.882812 78.59375 C 135.652344 79.664062 135.289062 80.703125 134.875 81.714844 L 134.539062 82.464844 C 134.425781 82.714844 134.289062 82.953125 134.164062 83.195312 C 133.921875 83.691406 133.617188 84.148438 133.332031 84.617188 C 132.121094 86.445312 130.613281 88.082031 128.867188 89.390625 C 128.003906 90.0625 127.074219 90.628906 126.125 91.144531 C 125.644531 91.382812 125.140625 91.648438 124.699219 91.839844 C 124.25 92.042969 123.800781 92.242188 123.363281 92.429688 C 121.609375 93.195312 119.925781 93.914062 118.378906 94.738281 C 117.722656 95.085938 116.964844 95.5 116.1875 96.007812 C 115.800781 96.257812 115.410156 96.53125 115.03125 96.835938 C 114.652344 97.132812 114.28125 97.457031 113.945312 97.808594 C 113.265625 98.515625 112.6875 99.320312 112.316406 100.253906 L 112.242188 100.425781 C 112.21875 100.488281 112.195312 100.566406 112.167969 100.636719 L 112.019531 101.070312 C 111.917969 101.359375 111.828125 101.660156 111.734375 101.953125 C 111.550781 102.542969 111.375 103.136719 111.214844 103.730469 C 110.574219 106.097656 110.09375 108.398438 109.753906 110.191406 C 109.40625 111.984375 109.1875 113.269531 109.070312 113.660156 C 108.945312 114.074219 108.863281 114.773438 108.191406 114.613281 C 108.085938 114.585938 107.996094 114.542969 107.917969 114.488281 C 107.800781 114.542969 107.660156 114.574219 107.515625 114.582031 C 106.375 114.648438 105.238281 114.730469 104.097656 114.730469 L 99.800781 114.726562 L 97.65625 114.722656 L 96.417969 114.714844 L 95.765625 114.710938 L 95.4375 114.707031 L 95.152344 114.707031 C 95.140625 114.703125 95.117188 114.710938 95.117188 114.699219 C 95.078125 114.058594 95.03125 113.40625 94.980469 112.746094 L 94.84375 111.070312 C 94.753906 109.992188 94.671875 108.910156 94.609375 107.828125 C 94.480469 105.65625 94.417969 103.476562 94.480469 101.285156 C 94.539062 99.359375 94.710938 97.421875 95.074219 95.496094 C 95.261719 94.535156 95.484375 93.574219 95.785156 92.625 C 96.089844 91.679688 96.453125 90.742188 96.90625 89.832031 L 97.269531 89.160156 C 97.394531 88.9375 97.539062 88.722656 97.671875 88.5 C 97.800781 88.28125 97.960938 88.074219 98.113281 87.863281 L 98.339844 87.546875 L 98.574219 87.257812 C 99.1875 86.484375 99.851562 85.742188 100.566406 85.042969 C 101.984375 83.640625 103.613281 82.421875 105.316406 81.410156 C 106.25 80.851562 107.203125 80.359375 108.117188 79.882812 C 108.574219 79.644531 109.019531 79.40625 109.441406 79.167969 C 109.859375 78.925781 110.257812 78.679688 110.617188 78.421875 C 111.332031 77.898438 111.875 77.332031 112.253906 76.644531 C 112.308594 76.5625 112.34375 76.46875 112.390625 76.382812 C 112.433594 76.292969 112.480469 76.203125 112.511719 76.109375 L 112.625 75.824219 L 112.722656 75.523438 C 112.84375 75.121094 112.941406 74.722656 112.972656 74.324219 C 113.011719 73.929688 113.015625 73.535156 112.960938 73.152344 C 112.90625 72.773438 112.8125 72.398438 112.675781 72.039062 C 112.402344 71.3125 111.941406 70.640625 111.363281 70.046875 C 110.195312 68.855469 108.546875 68.015625 106.824219 67.605469 C 106.5 67.53125 106.179688 67.464844 105.851562 67.417969 L 105.609375 67.382812 C 105.527344 67.371094 105.4375 67.363281 105.351562 67.355469 L 104.832031 67.300781 C 104.140625 67.253906 103.453125 67.21875 102.785156 67.261719 C 101.441406 67.316406 100.164062 67.589844 99.011719 68.082031 C 97.871094 68.585938 96.859375 69.3125 96.007812 70.246094 C 95.167969 71.191406 94.46875 72.316406 93.933594 73.566406 C 93.648438 74.21875 93.324219 75.046875 93.03125 76.023438 C 92.953125 76.261719 92.882812 76.515625 92.8125 76.777344 C 92.738281 77.035156 92.675781 77.304688 92.609375 77.578125 L 92.574219 77.730469 L 92.566406 77.757812 C 92.566406 77.753906 92.558594 77.8125 92.554688 77.832031 C 92.53125 77.972656 92.503906 78.117188 92.480469 78.261719 C 92.433594 78.550781 92.386719 78.839844 92.339844 79.128906 C 92.25 79.699219 92.160156 80.273438 92.070312 80.855469 C 91.410156 80.84375 90.742188 80.832031 90.070312 80.820312 C 89.746094 80.8125 89.417969 80.804688 89.089844 80.800781 L 88.847656 80.792969 L 88.746094 80.792969 L 88.679688 80.789062 L 88.410156 80.773438 C 87.691406 80.734375 86.96875 80.695312 86.261719 80.65625 C 84.839844 80.574219 83.46875 80.484375 82.25 80.398438 C 79.804688 80.226562 77.953125 80.0625 77.507812 79.964844 C 77.164062 79.886719 76.59375 79.851562 76.695312 79.300781 C 76.71875 79.164062 76.777344 79.058594 76.859375 78.972656 C 76.78125 78.824219 76.742188 78.640625 76.730469 78.453125 C 76.660156 77.039062 76.644531 75.613281 76.792969 74.195312 C 77.035156 71.96875 77.441406 69.746094 78.148438 67.59375 C 78.507812 66.519531 78.917969 65.464844 79.40625 64.4375 C 79.898438 63.414062 80.457031 62.421875 81.078125 61.46875 C 82.324219 59.554688 83.863281 57.832031 85.59375 56.332031 C 87.324219 54.828125 89.277344 53.582031 91.335938 52.5625 C 93.511719 51.492188 95.828125 50.710938 98.199219 50.203125 C 100.570312 49.695312 102.996094 49.445312 105.417969 49.429688 C 107.84375 49.410156 110.269531 49.625 112.664062 50.058594 C 115.058594 50.492188 117.425781 51.140625 119.722656 52.027344 C 122.242188 53.003906 124.683594 54.300781 126.882812 56.003906 C 127.15625 56.21875 127.433594 56.429688 127.699219 56.660156 L 128.097656 57 L 128.484375 57.355469 C 128.746094 57.589844 128.996094 57.839844 129.246094 58.089844 C 129.5 58.335938 129.71875 58.59375 129.957031 58.84375 C 130.4375 59.34375 130.863281 59.894531 131.3125 60.425781 C 131.726562 60.984375 132.160156 61.53125 132.535156 62.125 C 132.933594 62.699219 133.28125 63.316406 133.632812 63.921875 L 134.121094 64.867188 C 134.285156 65.179688 134.417969 65.511719 134.566406 65.832031 C 135.132812 67.136719 135.589844 68.503906 135.902344 69.910156 C 136.515625 72.726562 136.542969 75.722656 135.882812 78.59375 Z M 131.109375 68.761719 C 130.191406 66.019531 128.5625 63.492188 126.511719 61.34375 C 124.527344 59.230469 122.027344 57.601562 119.328125 56.359375 C 117.972656 55.746094 116.570312 55.21875 115.132812 54.796875 C 114.417969 54.578125 113.6875 54.398438 112.957031 54.222656 C 112.226562 54.0625 111.488281 53.902344 110.746094 53.785156 C 107.785156 53.285156 104.761719 53.128906 101.761719 53.304688 C 98.292969 53.511719 94.871094 54.394531 91.796875 55.902344 C 88.71875 57.40625 86.007812 59.539062 83.832031 62.164062 C 83.316406 62.78125 82.679688 63.652344 82.050781 64.75 C 81.421875 65.84375 80.796875 67.160156 80.257812 68.632812 C 79.976562 69.367188 79.75 70.136719 79.515625 70.9375 C 79.300781 71.742188 79.089844 72.574219 78.910156 73.421875 C 78.550781 75.113281 78.261719 76.867188 78.03125 78.550781 C 78.027344 78.574219 78.023438 78.597656 78.023438 78.621094 C 79.414062 78.480469 80.8125 78.375 82.210938 78.292969 C 83.59375 78.214844 84.976562 78.140625 86.359375 78.074219 L 88.4375 77.976562 L 88.695312 77.964844 C 88.75 77.964844 88.75 77.960938 88.773438 77.960938 L 88.828125 77.957031 L 89.042969 77.9375 C 89.179688 77.921875 89.324219 77.921875 89.445312 77.898438 C 89.457031 77.738281 89.460938 77.582031 89.476562 77.433594 L 89.5 77.207031 L 89.59375 76.621094 C 89.730469 75.835938 89.894531 75.054688 90.113281 74.277344 C 90.542969 72.730469 91.164062 71.199219 92.035156 69.773438 C 92.914062 68.359375 94.054688 67.042969 95.46875 66.050781 C 96.167969 65.550781 96.925781 65.128906 97.714844 64.789062 C 98.503906 64.445312 99.324219 64.207031 100.152344 64.03125 C 101.53125 63.746094 102.921875 63.648438 104.285156 63.710938 C 104.621094 63.734375 104.964844 63.742188 105.300781 63.777344 L 105.804688 63.828125 C 105.972656 63.847656 106.140625 63.863281 106.320312 63.894531 C 107.015625 63.992188 107.707031 64.140625 108.386719 64.339844 C 109.742188 64.746094 111.054688 65.347656 112.25 66.1875 C 113.441406 67.027344 114.527344 68.117188 115.289062 69.476562 C 115.6875 70.179688 116 70.949219 116.195312 71.753906 C 116.390625 72.558594 116.464844 73.394531 116.417969 74.214844 C 116.375 75.035156 116.214844 75.835938 115.972656 76.589844 C 115.738281 77.332031 115.398438 78.101562 114.9375 78.800781 C 114.480469 79.507812 113.902344 80.136719 113.289062 80.652344 C 112.671875 81.175781 112.03125 81.59375 111.410156 81.957031 C 110.15625 82.679688 108.976562 83.222656 107.878906 83.8125 C 106.777344 84.398438 105.757812 85.011719 104.804688 85.710938 C 103.847656 86.40625 102.964844 87.1875 102.136719 88.039062 C 101.925781 88.25 101.726562 88.472656 101.527344 88.691406 C 101.324219 88.910156 101.136719 89.144531 100.941406 89.371094 L 100.792969 89.542969 L 100.671875 89.703125 L 100.425781 90.023438 C 100.265625 90.242188 100.121094 90.476562 99.964844 90.703125 C 99.382812 91.648438 98.898438 92.710938 98.492188 93.828125 C 98.019531 95.125 97.691406 96.507812 97.464844 97.925781 C 97.238281 99.34375 97.097656 100.789062 97.023438 102.25 C 96.867188 105.175781 96.945312 108.132812 97 111.128906 C 97.007812 111.320312 97.011719 111.527344 97.019531 111.753906 C 97.023438 111.863281 97.027344 111.980469 97.03125 112.101562 C 97.035156 112.160156 97.035156 112.222656 97.039062 112.285156 C 97.039062 112.304688 97.039062 112.304688 97.039062 112.308594 L 97.039062 112.339844 C 97.035156 112.457031 97.035156 112.589844 97.035156 112.734375 C 97.117188 112.746094 97.21875 112.75 97.320312 112.761719 L 97.402344 112.769531 L 97.441406 112.769531 L 97.464844 112.773438 L 97.535156 112.777344 C 97.769531 112.785156 98.003906 112.796875 98.242188 112.808594 C 99.203125 112.851562 100.21875 112.902344 101.261719 112.964844 C 103.308594 113.089844 105.460938 113.261719 107.488281 113.515625 C 107.480469 113.425781 107.476562 113.332031 107.472656 113.246094 C 107.417969 111.375 107.480469 109.496094 107.628906 107.621094 C 107.742188 106.238281 107.894531 104.855469 108.101562 103.472656 L 108.269531 102.4375 L 108.460938 101.398438 C 108.535156 101.054688 108.601562 100.707031 108.679688 100.363281 L 108.800781 99.84375 C 108.84375 99.667969 108.878906 99.507812 108.9375 99.308594 C 109.148438 98.542969 109.445312 97.792969 109.824219 97.101562 C 110.203125 96.402344 110.65625 95.753906 111.152344 95.160156 C 112.152344 93.972656 113.320312 92.996094 114.53125 92.171875 C 116.964844 90.519531 119.570312 89.390625 122.027344 88.277344 C 123.289062 87.714844 124.351562 87.1875 125.378906 86.503906 C 126.398438 85.828125 127.332031 85.039062 128.160156 84.152344 C 130.039062 82.125 131.296875 79.574219 131.753906 76.882812 C 132.226562 74.195312 131.964844 71.402344 131.109375 68.761719 Z M 131.109375 68.761719 " fill-opacity="1" fill-rule="nonzero"/></g><g clip-path="url(#d1e146c9d1)"><path fill="#11100e" d="M 278.527344 116.023438 C 279.019531 114.097656 279.390625 112.128906 279.640625 110.105469 C 279.671875 109.84375 279.699219 109.582031 279.726562 109.320312 L 283.011719 109.320312 C 284.179688 109.320312 285.132812 108.339844 285.132812 107.144531 L 285.132812 103.863281 L 289.3125 103.878906 C 289.03125 108.320312 287.652344 112.460938 285.460938 116.023438 Z M 274.8125 125.6875 C 275.839844 123.746094 276.714844 121.730469 277.4375 119.644531 L 282.769531 119.644531 C 280.539062 122.160156 277.839844 124.222656 274.8125 125.6875 Z M 269.90625 127.457031 C 268.542969 127.789062 267.144531 128.007812 265.707031 128.105469 L 265.707031 119.644531 L 273.683594 119.644531 C 272.648438 122.328125 271.328125 124.890625 269.71875 127.328125 Z M 276.199219 109.320312 C 275.933594 111.621094 275.496094 113.859375 274.890625 116.023438 L 265.707031 116.023438 L 265.707031 109.320312 Z M 263.855469 101.1875 L 262.085938 106.976562 L 260.984375 106.976562 L 260.953125 107.078125 L 260.929688 106.976562 L 259.929688 106.976562 L 258.023438 100.039062 L 256.121094 106.976562 L 255.117188 106.976562 L 255.09375 107.078125 L 255.0625 106.976562 L 253.960938 106.976562 L 252.191406 101.1875 L 250.425781 106.976562 L 249.324219 106.976562 L 249.292969 107.078125 L 249.269531 106.976562 L 248.265625 106.976562 L 245.351562 96.363281 L 248.152344 96.363281 L 249.453125 101.734375 L 251.105469 96.363281 L 252.1875 96.363281 L 252.191406 96.339844 L 252.199219 96.363281 L 253.28125 96.363281 L 254.933594 101.734375 L 256.234375 96.363281 L 259.816406 96.363281 L 261.117188 101.734375 L 262.765625 96.363281 L 263.847656 96.363281 L 263.855469 96.339844 L 263.863281 96.363281 L 264.945312 96.363281 L 266.59375 101.734375 L 267.894531 96.363281 L 271.476562 96.363281 L 272.777344 101.734375 L 274.425781 96.363281 L 275.507812 96.363281 L 275.515625 96.339844 L 275.523438 96.363281 L 276.605469 96.363281 L 278.257812 101.734375 L 279.558594 96.363281 L 282.355469 96.363281 L 279.445312 106.976562 L 278.441406 106.976562 L 278.417969 107.078125 L 278.386719 106.976562 L 277.285156 106.976562 L 275.515625 101.1875 L 273.75 106.976562 L 272.644531 106.976562 L 272.617188 107.078125 L 272.59375 106.976562 L 271.589844 106.976562 L 269.6875 100.039062 L 267.78125 106.976562 L 266.78125 106.976562 L 266.753906 107.078125 L 266.726562 106.976562 L 265.621094 106.976562 Z M 262.175781 116.023438 L 252.511719 116.023438 C 251.914062 113.855469 251.492188 111.621094 251.25 109.320312 L 262.175781 109.320312 Z M 262.175781 128.09375 C 260.636719 127.976562 259.132812 127.722656 257.679688 127.335938 C 256.0625 124.894531 254.738281 122.328125 253.707031 119.644531 L 262.175781 119.644531 Z M 245.292969 119.644531 L 249.824219 119.644531 C 250.472656 121.527344 251.253906 123.355469 252.160156 125.125 C 249.574219 123.710938 247.25 121.851562 245.292969 119.644531 Z M 242.605469 116.023438 C 240.382812 112.417969 239 108.214844 238.738281 103.710938 L 242.402344 103.722656 L 242.402344 107.144531 C 242.402344 108.339844 243.355469 109.320312 244.519531 109.320312 L 247.585938 109.320312 C 247.628906 109.765625 247.675781 110.210938 247.730469 110.652344 C 247.964844 112.480469 248.304688 114.273438 248.742188 116.023438 Z M 243.695312 86.671875 L 250.109375 86.671875 C 249.527344 88.59375 248.980469 90.699219 248.527344 92.953125 C 248.472656 93.214844 248.425781 93.476562 248.375 93.738281 L 244.519531 93.738281 C 243.355469 93.738281 242.402344 94.714844 242.402344 95.910156 L 242.402344 100.097656 L 238.773438 100.085938 C 239.160156 95.085938 240.933594 90.480469 243.695312 86.671875 Z M 253.042969 78.734375 C 252.515625 79.933594 251.917969 81.382812 251.316406 83.046875 L 246.875 83.046875 C 248.703125 81.316406 250.78125 79.859375 253.042969 78.734375 Z M 262.175781 86.671875 L 262.175781 93.738281 L 252.109375 93.738281 C 252.621094 91.167969 253.273438 88.789062 253.953125 86.671875 Z M 257.996094 76.910156 C 259.351562 76.566406 260.746094 76.339844 262.175781 76.230469 L 262.175781 83.046875 L 255.234375 83.046875 C 256.488281 79.792969 257.628906 77.589844 257.996094 76.910156 Z M 265.707031 86.671875 L 273.816406 86.671875 C 274.414062 88.660156 274.976562 90.863281 275.429688 93.222656 C 275.464844 93.394531 275.492188 93.566406 275.527344 93.738281 L 265.707031 93.738281 Z M 265.707031 76.21875 C 267.1875 76.320312 268.628906 76.550781 270.03125 76.898438 C 270.558594 77.96875 271.558594 80.121094 272.617188 83.046875 L 265.707031 83.046875 Z M 281.1875 83.046875 L 276.378906 83.046875 C 275.792969 81.332031 275.210938 79.828125 274.6875 78.574219 C 277.078125 79.71875 279.269531 81.234375 281.1875 83.046875 Z M 284.367188 86.671875 C 287.160156 90.519531 288.941406 95.1875 289.300781 100.253906 L 285.132812 100.238281 L 285.132812 95.910156 C 285.132812 94.714844 284.179688 93.738281 283.011719 93.738281 L 279.113281 93.738281 C 279.039062 93.296875 278.960938 92.851562 278.875 92.410156 C 278.476562 90.367188 278.007812 88.445312 277.503906 86.671875 Z M 264.03125 72.539062 C 248.113281 72.539062 235.160156 85.828125 235.160156 102.160156 C 235.160156 118.496094 248.113281 131.785156 264.03125 131.785156 C 279.949219 131.785156 292.902344 118.496094 292.902344 102.160156 C 292.902344 85.828125 279.949219 72.539062 264.03125 72.539062 " fill-opacity="1" fill-rule="nonzero"/></g><path fill="#ffffff" d="M 278.300781 193.453125 C 278.355469 200.632812 278.417969 208.773438 278.25 214.28125 C 277.828125 228.210938 266.507812 239.535156 253.015625 239.535156 C 247.878906 239.535156 242.871094 237.796875 238.519531 234.503906 C 233.074219 230.382812 228.734375 224.265625 224.535156 218.34375 C 222.335938 215.246094 220.257812 212.316406 218.074219 209.730469 C 217.738281 209.332031 217.476562 208.941406 217.292969 208.535156 C 216.519531 206.855469 216.390625 205.535156 216.925781 204.714844 C 217.460938 203.882812 218.539062 203.710938 219.351562 203.710938 C 220.554688 203.710938 221.984375 204.09375 223.175781 204.738281 C 225.625 206.058594 227.972656 207.871094 230.242188 209.617188 C 231.347656 210.476562 232.496094 211.359375 233.628906 212.164062 C 233.902344 212.359375 234.222656 212.464844 234.558594 212.464844 C 235.582031 212.464844 236.511719 211.539062 236.511719 210.535156 L 236.511719 167.59375 C 236.511719 166.953125 236.46875 166.28125 236.425781 165.566406 C 236.332031 164.132812 236.242188 162.644531 236.511719 161.394531 C 237.003906 159.042969 238.3125 157.644531 240.03125 157.644531 C 241.878906 157.644531 243.5625 159.296875 243.949219 161.492188 C 244.089844 162.300781 244.042969 163.226562 243.992188 164.121094 C 243.972656 164.558594 243.941406 164.992188 243.941406 165.398438 L 243.941406 165.40625 C 243.949219 165.796875 244.003906 172.292969 244.074219 179.804688 L 244.210938 195.136719 C 244.222656 196.25 245.113281 197.121094 246.230469 197.121094 C 247.335938 197.121094 248.238281 196.226562 248.238281 195.121094 L 248.238281 184.535156 C 248.238281 182.667969 249.769531 181.152344 251.648438 181.152344 L 252.066406 181.152344 C 253.945312 181.152344 255.472656 182.667969 255.472656 184.535156 L 255.472656 195.121094 C 255.472656 196.226562 256.375 197.121094 257.480469 197.121094 L 257.804688 197.121094 C 258.917969 197.121094 259.820312 196.226562 259.820312 195.121094 L 259.820312 184.410156 C 259.820312 182.585938 261.25 181.105469 263.089844 181.027344 C 263.1875 181.019531 263.835938 181 263.835938 181 C 265.71875 181 267.253906 182.515625 267.253906 184.390625 L 267.253906 195.121094 C 267.253906 196.226562 268.15625 197.121094 269.261719 197.121094 L 269.585938 197.121094 C 270.691406 197.121094 271.59375 196.226562 271.59375 195.121094 L 271.59375 185.257812 C 271.59375 183.125 273.417969 181.804688 275.109375 181.804688 C 276.058594 181.804688 276.910156 182.214844 277.515625 182.976562 C 277.910156 183.453125 278.15625 184.039062 278.25 184.699219 C 278.25 187.1875 278.277344 190.222656 278.300781 193.453125 " fill-opacity="1" fill-rule="nonzero"/><g clip-path="url(#17518f726c)"><path fill="#000000" d="M 278.25 214.28125 C 278.417969 208.773438 278.355469 200.632812 278.300781 193.453125 C 278.277344 190.222656 278.25 187.1875 278.25 184.699219 C 278.15625 184.039062 277.910156 183.453125 277.515625 182.976562 C 276.910156 182.214844 276.058594 181.804688 275.109375 181.804688 C 273.417969 181.804688 271.59375 183.125 271.59375 185.257812 L 271.59375 195.121094 C 271.59375 196.226562 270.691406 197.121094 269.585938 197.121094 L 269.261719 197.121094 C 268.15625 197.121094 267.253906 196.226562 267.253906 195.121094 L 267.253906 184.390625 C 267.253906 182.515625 265.71875 181 263.835938 181 C 263.835938 181 263.1875 181.019531 263.089844 181.027344 C 261.25 181.105469 259.820312 182.585938 259.820312 184.410156 L 259.820312 195.121094 C 259.820312 196.226562 258.917969 197.121094 257.804688 197.121094 L 257.480469 197.121094 C 256.375 197.121094 255.472656 196.226562 255.472656 195.121094 L 255.472656 184.535156 C 255.472656 182.667969 253.945312 181.152344 252.066406 181.152344 L 251.648438 181.152344 C 249.769531 181.152344 248.238281 182.667969 248.238281 184.535156 L 248.238281 195.121094 C 248.238281 196.226562 247.335938 197.121094 246.230469 197.121094 C 245.113281 197.121094 244.222656 196.25 244.210938 195.136719 L 244.074219 179.804688 C 244.003906 172.292969 243.949219 165.796875 243.941406 165.40625 L 243.941406 165.398438 C 243.941406 164.992188 243.972656 164.558594 243.992188 164.121094 C 244.042969 163.226562 244.089844 162.300781 243.949219 161.492188 C 243.5625 159.296875 241.878906 157.644531 240.03125 157.644531 C 238.3125 157.644531 237.003906 159.042969 236.511719 161.394531 C 236.242188 162.644531 236.332031 164.132812 236.425781 165.566406 C 236.46875 166.28125 236.511719 166.953125 236.511719 167.59375 L 236.511719 210.535156 C 236.511719 211.539062 235.582031 212.464844 234.558594 212.464844 C 234.222656 212.464844 233.902344 212.359375 233.628906 212.164062 C 232.496094 211.359375 231.347656 210.476562 230.242188 209.617188 C 227.972656 207.871094 225.625 206.058594 223.175781 204.738281 C 221.984375 204.09375 220.554688 203.710938 219.351562 203.710938 C 218.539062 203.710938 217.460938 203.882812 216.925781 204.714844 C 216.390625 205.535156 216.519531 206.855469 217.292969 208.535156 C 217.476562 208.941406 217.738281 209.332031 218.074219 209.730469 C 220.257812 212.316406 222.335938 215.246094 224.535156 218.34375 C 228.734375 224.265625 233.074219 230.382812 238.519531 234.503906 C 242.871094 237.796875 247.878906 239.535156 253.015625 239.535156 C 266.507812 239.535156 277.828125 228.210938 278.25 214.28125 Z M 282.222656 193.527344 C 282.449219 202.179688 282.703125 211.980469 281.75 218.671875 C 279.765625 232.710938 267.585938 243.304688 253.417969 243.304688 C 253.417969 243.304688 253.417969 243.304688 253.410156 243.304688 C 252.542969 243.304688 251.65625 243.265625 250.789062 243.179688 C 238.414062 242.027344 231.839844 233.539062 224.886719 224.558594 L 224.789062 224.433594 C 223.789062 223.148438 222.78125 221.867188 221.765625 220.589844 C 219.582031 217.828125 217.328125 214.972656 215.207031 212.101562 C 213.296875 209.5 211.417969 206.050781 213.804688 202.445312 C 215.15625 200.410156 216.953125 199.375 219.144531 199.375 C 223.605469 199.375 228.839844 203.554688 232.699219 206.660156 L 232.699219 167.59375 C 232.699219 167.132812 232.691406 166.65625 232.683594 166.167969 C 232.621094 161.148438 232.542969 154.902344 238.996094 153.910156 C 239.5625 153.828125 240.101562 153.777344 240.617188 153.777344 C 243.605469 153.777344 245.667969 155.300781 246.746094 158.300781 C 247.632812 160.757812 247.753906 163.804688 247.753906 166.734375 L 247.753906 178.789062 C 248.121094 178.230469 248.832031 177.523438 250.121094 177.371094 L 253 177.371094 C 254.25 177.371094 255.398438 177.761719 256.242188 178.472656 C 257.085938 179.1875 257.496094 180 257.695312 180.574219 C 257.890625 180 258.300781 179.1875 259.144531 178.472656 C 259.988281 177.761719 261.136719 177.371094 262.386719 177.371094 L 264.96875 177.371094 C 266.21875 177.371094 267.367188 177.761719 268.210938 178.472656 C 269.054688 179.1875 269.464844 180 269.660156 180.566406 C 269.796875 180.175781 270.042969 179.65625 270.457031 179.140625 C 271.296875 178.109375 272.621094 177.523438 274.085938 177.523438 C 274.367188 177.523438 274.65625 177.542969 274.9375 177.585938 C 278.976562 178.203125 281.195312 180.238281 281.917969 183.992188 C 282.011719 184.167969 282.0625 184.417969 282.0625 184.699219 C 282.089844 184.835938 282.089844 185.003906 282.0625 185.152344 C 282.074219 187.570312 282.144531 190.460938 282.222656 193.527344 " fill-opacity="1" fill-rule="nonzero"/></g><path fill="#000000" d="M 250.492188 161.324219 C 250.449219 162.480469 250.234375 163.59375 249.863281 164.640625 C 249.816406 164.773438 249.789062 164.910156 249.789062 165.050781 C 249.789062 166.496094 251.839844 166.867188 252.320312 165.503906 C 252.75 164.289062 253.019531 162.996094 253.109375 161.660156 C 253.128906 161.554688 253.140625 161.449219 253.136719 161.324219 C 253.140625 161.203125 253.128906 161.09375 253.109375 160.988281 C 252.65625 153.996094 247.210938 148.242188 239.925781 148.210938 C 232.761719 148.183594 226.691406 154.210938 226.71875 161.324219 C 226.726562 162.847656 227.003906 164.324219 227.507812 165.695312 C 228.015625 167.070312 230.0625 166.71875 230.0625 165.253906 C 230.0625 165.105469 230.035156 164.957031 229.984375 164.816406 C 229.578125 163.722656 229.359375 162.542969 229.359375 161.324219 C 229.359375 160.03125 229.605469 158.785156 230.0625 157.625 C 230.316406 156.960938 230.648438 156.324219 231.03125 155.730469 C 232.925781 152.792969 236.230469 150.800781 239.925781 150.835938 C 243.746094 150.871094 246.921875 152.8125 248.769531 155.730469 C 249.175781 156.363281 249.519531 157.050781 249.789062 157.777344 C 250.199219 158.882812 250.445312 160.078125 250.492188 161.324219 " fill-opacity="1" fill-rule="nonzero"/><path fill="#000000" d="M 246.316406 144.109375 C 238.988281 141.429688 230.59375 143.714844 225.640625 149.6875 C 218.808594 157.925781 221.117188 168.945312 227.988281 175.070312 C 228.785156 175.785156 230.0625 175.199219 230.0625 174.132812 C 230.0625 173.769531 229.898438 173.429688 229.621094 173.191406 C 226.253906 170.289062 224.105469 166.015625 224.078125 161.324219 C 224.027344 152.75 231.324219 145.589844 239.925781 145.589844 C 248.746094 145.589844 255.539062 152.757812 255.777344 161.324219 C 255.648438 166 253.558594 170.265625 250.253906 173.160156 C 249.964844 173.414062 249.789062 173.773438 249.789062 174.160156 C 249.789062 175.285156 251.132812 175.921875 251.984375 175.175781 C 255.878906 171.761719 258.269531 166.75 258.417969 161.324219 C 258.207031 153.679688 253.648438 146.777344 246.316406 144.109375 " fill-opacity="1" fill-rule="nonzero"/></svg>