<?xml version="1.0" encoding="UTF-8" standalone="no"?>
<!-- Created with Inkscape (http://www.inkscape.org/) -->

<svg
   version="1.1"
   id="svg132"
   width="250.04982"
   height="320.01562"
   viewBox="0 0 250.04982 320.01562"
   xmlns="http://www.w3.org/2000/svg"
   xmlns:svg="http://www.w3.org/2000/svg">
  <defs
     id="defs136" />
  <g
     id="layer1"
     transform="translate(-4.1658673,-0.91535544)">
    <g
       id="g4812"
       transform="translate(-235,-107)">
      <path
         id="path4009"
         style="display:inline;fill:#38b6ff;fill-opacity:1;stroke:#7c827f;stroke-width:4.53543;stroke-opacity:0"
         d="m 380.70312,291.73828 c -0.70702,-0.006 -1.51563,0.23635 -2.21093,1.19727 -1.39062,1.92187 -1.18751,2.09375 -1.20313,2.65625 -0.0156,0.56248 -0.26953,109.3457 -0.26953,109.3457 v 2.08789 c 0,0 -0.011,0.56373 1.12695,1.25977 1.138,0.69606 0.82945,0.82817 1.5918,0.86132 0.76235,0.0331 2.89453,0.14454 2.89453,0.14454 l 20.24024,-16.43946 17.23633,30.44922 c 0,0 2.23224,3.84481 6.2539,1.83399 4.02165,-2.01082 17.01367,-7.88868 17.01367,-7.88868 l 6.69532,-3.93359 c 0,0 3.49804,-1.70508 1.31054,-5.26758 -2.1875,-3.56249 -16.375,-29 -16.375,-29 l 22.125,-0.75 4.23242,-0.16015 c 0,0 1.34666,-0.0663 1.52344,-1.48047 0.17677,-1.41421 0.99575,-2.60888 0.0234,-3.82422 -0.97227,-1.21534 -3.22656,-3.60156 -3.22656,-3.60156 l -25.35352,-25.50196 c -2.30562,1.56095 -4.68716,3.04461 -7.14453,4.44922 l -12.76562,-12.8418 c 2.24549,-1.59032 4.43358,-3.26362 6.5371,-5.06054 l -36.70117,-36.91602 c 0,0 -1.37501,-1.26564 -1.95312,-1.32812 -0.28906,-0.0312 -0.89454,-0.28516 -1.60157,-0.29102 z m 6.25,17.36719 c 0.50347,0.004 0.93479,0.18478 1.14063,0.20703 0.41168,0.0445 1.39063,0.94531 1.39063,0.94531 l 53.71289,54.02735 c 0,0 1.60453,1.69902 2.29687,2.56445 0.69239,0.86544 0.11023,1.71562 -0.0156,2.72266 -0.12588,1.00704 -1.08594,1.05468 -1.08594,1.05468 l -3.01367,0.11524 -15.75586,0.5332 c 0,0 10.10443,18.11357 11.66211,20.65039 0.20464,0.33327 0.33241,0.63986 0.41211,0.92774 l 0.002,-0.002 9.67773,17.85352 -22.45117,10.47461 -9.88672,-18.29102 0.0371,-0.0156 c -0.008,-0.0137 -0.0605,-0.084 -0.0605,-0.084 l -12.27343,-21.68164 -14.41407,11.70508 c 0,0 -1.51767,-0.078 -2.06054,-0.10156 -0.54286,-0.0236 -0.32247,-0.11762 -1.13281,-0.61328 -0.8105,-0.49566 -0.80274,-0.89649 -0.80274,-0.89649 v -1.48828 c 0,0 0.0382,-14.68707 0.0664,-26.62109 -2.38295,0.3979 -4.81915,0.71342 -7.27149,1.00586 0.0141,-5.96174 0.0159,-6.412 0.0312,-12.78516 2.44661,-0.51953 4.87268,-1.11715 7.27344,-1.80859 0.045,-18.76177 0.0864,-37.4606 0.0918,-37.6543 0.0111,-0.40055 -0.13478,-0.52403 0.85547,-1.89258 0.49513,-0.68427 1.07075,-0.85574 1.57421,-0.85156 z" />
      <path
         id="text3003"
         style="font-style:normal;font-variant:normal;font-weight:normal;font-stretch:normal;font-size:81.5314px;font-family:Montserrat;-inkscape-font-specification:'Montserrat, Normal';font-variant-ligatures:normal;font-variant-caps:normal;font-variant-numeric:normal;font-variant-east-asian:normal;display:inline;fill:#000000;fill-opacity:1;stroke:#7c827f;stroke-width:1.92593;stroke-opacity:0"
         d="m 416.00195,169.53906 v 60.4961 h 5.54493 v -8.48243 c 1.66281,2.71024 3.80995,4.83226 6.4414,6.36329 2.98948,1.68498 6.35894,2.52734 10.10938,2.52734 4.07656,0 7.71888,-0.92539 10.92578,-2.77344 3.26125,-1.84804 5.81406,-4.40281 7.66211,-7.66406 1.84804,-3.31561 2.77343,-7.12008 2.77343,-11.41406 0,-2.72706 -0.36493,-5.23958 -1.09179,-7.53907 0.72172,2.29297 1.08203,4.79792 1.08203,7.51563 0,4.29398 -0.92344,8.10041 -2.77149,11.41602 -0.0921,0.16252 -0.19345,0.31558 -0.28906,0.4746 -1.29103,-10.62274 -3.61382,-20.83402 -6.96484,-30.63281 -0.13327,-0.0772 -0.26467,-0.15582 -0.40039,-0.23047 -3.2069,-1.84804 -6.84922,-2.77148 -10.92578,-2.77148 -3.69609,0 -7.03982,0.84236 -10.0293,2.52734 -2.51751,1.41896 -4.60786,3.39875 -6.27734,5.93555 v -25.74805 z m 42.36524,31.51367 c -0.13667,-0.43237 -0.28685,-0.85618 -0.44922,-1.27343 0.16165,0.41703 0.31321,0.84133 0.44922,1.27343 z m -74.97657,-14.22851 c -3.96785,0 -7.55677,0.95112 -10.76367,2.85351 -3.15254,1.84805 -5.65195,4.40281 -7.5,7.66407 -1.79369,3.26125 -2.6914,7.01037 -2.6914,11.25 0,4.23963 0.95112,8.01837 2.85351,11.33398 1.9024,3.26125 4.5402,5.84174 7.91016,7.74414 3.36996,1.84805 7.28319,2.77344 11.74023,2.77344 3.42432,0 6.54858,-0.59913 9.375,-1.79492 2.88078,-1.1958 5.27339,-2.93392 7.17578,-5.2168 l -3.26171,-3.75195 c -1.63063,1.90239 -3.58822,3.31621 -5.8711,4.24023 -2.22852,0.92402 -4.64686,1.38672 -7.25586,1.38672 -3.3156,0 -6.27771,-0.68021 -8.88672,-2.03906 -2.55464,-1.41321 -4.56564,-3.34312 -6.0332,-5.78906 -1.18492,-2.0964 -1.87109,-4.46044 -2.0625,-7.0918 h 35.98047 v -0.89844 c 0.0543,-0.32612 0.0801,-0.62471 0.0801,-0.89648 0,-4.29399 -0.89577,-8.07078 -2.68946,-11.33203 -1.79368,-3.31561 -4.26737,-5.87038 -7.41992,-7.66407 -3.09819,-1.84804 -6.65747,-2.77148 -10.67969,-2.77148 z m 66.23438,3.11719 c 0.24635,0.14671 0.48865,0.29764 0.72656,0.45312 -0.23794,-0.15531 -0.48009,-0.30666 -0.72656,-0.45312 z m 1.05859,0.67382 c 0.25732,0.17553 0.50879,0.35682 0.75586,0.54297 -0.24714,-0.18622 -0.49839,-0.36747 -0.75586,-0.54297 z m 1.07227,0.78711 c 0.23041,0.18113 0.45659,0.3659 0.67773,0.55664 -0.22098,-0.19074 -0.44745,-0.37555 -0.67773,-0.55664 z m -68.36524,0.39454 c 2.98949,0 5.62533,0.6802 7.90821,2.03906 2.28288,1.35885 4.07636,3.26109 5.38086,5.70703 1.10288,1.94107 1.75904,4.11494 1.96679,6.52148 h -30.49804 c 0.21139,-2.39668 0.83002,-4.57314 1.86914,-6.52148 1.3045,-2.44594 3.12566,-4.34818 5.46289,-5.70703 2.33723,-1.35886 4.97503,-2.03907 7.91015,-2.03906 z m 54.29883,0.082 c 3.04384,0 5.76076,0.70593 8.15235,2.11914 2.39158,1.35885 4.29577,3.28877 5.70898,5.78906 1.41321,2.50029 2.11914,5.43473 2.11914,8.80469 0,3.3156 -0.70593,6.25199 -2.11914,8.80664 -1.41321,2.50029 -3.3174,4.45593 -5.70898,5.86914 -2.39159,1.35885 -5.10851,2.03906 -8.15235,2.03906 -3.04383,0 -5.78843,-0.68021 -8.23437,-2.03906 -2.39159,-1.41321 -4.29382,-3.36885 -5.70703,-5.86914 -1.35886,-2.55465 -2.03907,-5.49104 -2.03907,-8.80664 0,-3.36996 0.68021,-6.3044 2.03907,-8.80469 1.41321,-2.50029 3.31544,-4.43021 5.70703,-5.78906 2.44594,-1.41321 5.19054,-2.11914 8.23437,-2.11914 z m 15.08985,0.38867 c 0.21618,0.1958 0.42982,0.39611 0.63672,0.60156 -0.20704,-0.20581 -0.42037,-0.40543 -0.63672,-0.60156 z m 0.92968,0.90039 c 0.16848,0.17481 0.33213,0.35364 0.49414,0.53515 -0.16189,-0.18154 -0.32581,-0.36029 -0.49414,-0.53515 z m 0.93555,1.04883 c 0.11224,0.13505 0.22314,0.27162 0.33203,0.41015 -0.10885,-0.13853 -0.21985,-0.27508 -0.33203,-0.41015 z m 0.80469,1.03515 c 0.10349,0.14307 0.20452,0.28902 0.30469,0.43555 -0.10019,-0.14647 -0.20121,-0.29251 -0.30469,-0.43555 z m 0.70312,1.03907 c 0.12617,0.19947 0.24879,0.40191 0.36914,0.60742 -0.12061,-0.20553 -0.24276,-0.40788 -0.36914,-0.60742 z m 0.63672,1.07617 c 0.15661,0.2844 0.30648,0.57269 0.44922,0.86523 -0.14309,-0.29235 -0.29227,-0.58103 -0.44922,-0.86523 z m 0.59571,1.16797 c 0.16087,0.3444 0.31304,0.69335 0.45507,1.04882 -0.1423,-0.3548 -0.29397,-0.70508 -0.45507,-1.04882 z" />
      <path
         id="text300"
         style="font-weight:bold;font-size:242.619px;font-family:Arial;-inkscape-font-specification:'Arial, Bold';display:inline;fill:#000000;fill-opacity:1;stroke:#7c827f;stroke-width:9.48605;stroke-opacity:0"
         d="m 246.73828,112.79688 -1.60547,8.0332 c 1.60631,0.26772 4.95243,0.80231 10.03907,1.60547 5.35433,0.53543 10.44086,1.73925 15.25976,3.61328 4.81892,1.87402 7.36314,5.35479 7.63086,10.4414 0,4.01577 0.13267,7.09459 0.40039,9.23633 0.53544,18.20477 0.80273,33.86623 0.80273,46.98438 v 93.16601 c 0,20.07879 -0.53459,41.89793 -1.60546,65.45703 l -32.92969,5.62305 1.60742,8.43164 40.96094,-1.60547 h 8.03125 c 9.63782,0 21.95316,0.2673 36.94531,0.80274 12.315,0.53543 20.21108,0.80273 23.69141,0.80273 7.35073,0 14.42372,-0.42317 21.23828,-1.23828 0.0141,-5.95329 0.0179,-6.41063 0.0332,-12.78125 -7.41525,1.57977 -15.04029,2.375 -22.87695,2.375 h -20.48047 c -4.5512,-0.26772 -13.92036,-0.40234 -28.10938,-0.40234 -0.80313,-14.18902 -1.20507,-36.67737 -1.20507,-67.46485 v -55.36133 h -6.03907 L 279.0957,172.88086 h 6.25782 l 16.65625,49.66797 2.55664,-7.39063 v -89.50976 c 10.44097,-0.80316 26.77167,-1.20508 48.99218,-1.20508 25.16543,0 45.51146,5.62111 61.03907,16.86523 15.52758,11.24413 26.50448,25.70177 32.92968,43.3711 0.64439,1.67539 1.23017,3.37401 1.8125,5.07422 3.10949,1.7814 5.56412,4.24217 7.35157,7.39648 1.84803,3.26125 2.77343,7.06574 2.77343,11.41406 0,4.29399 -0.9254,8.10041 -2.77343,11.41602 -0.11267,0.19883 -0.2356,0.3865 -0.35352,0.58008 0.80041,6.62366 1.22852,13.39599 1.22852,20.33984 0,25.16543 -4.95189,46.18068 -14.85743,63.04688 -6.09955,10.38572 -13.32106,19.1414 -21.65429,26.27929 l 13.42969,13.50782 c 14.18584,-9.62828 25.49733,-22.21715 33.92578,-37.77735 10.70869,-19.27564 16.0625,-42.16593 16.0625,-68.66992 0,-26.504 -5.48844,-48.99236 -16.46485,-67.46484 -10.9764,-18.74023 -26.10327,-32.93055 -45.3789,-42.56836 -19.27564,-9.63782 -40.96016,-14.45704 -65.05469,-14.45703 -8.03151,-1e-5 -20.07956,0.26925 -36.14258,0.80468 -14.99215,0.53544 -24.6306,0.80274 -28.91406,0.80274 z m 167.79688,222.51367 c -3.30799,2.34956 -6.76226,4.48644 -10.37891,6.38672 -6.36608,3.29279 -12.91465,5.89907 -19.64063,7.84179 -0.0162,6.76546 -0.0188,7.49917 -0.0332,13.57617 14.38009,-2.40925 27.50133,-6.73203 39.35156,-12.98632 1.18765,-0.62681 2.35761,-1.27224 3.51172,-1.9336 z" />
      <path
         id="text410-0"
         style="font-style:normal;font-variant:normal;font-weight:300;font-stretch:normal;font-size:82.3366px;font-family:'Monterchi Serif Trial';-inkscape-font-specification:'Monterchi Serif Trial, Light';font-variant-ligatures:normal;font-variant-caps:normal;font-variant-numeric:normal;font-variant-east-asian:normal;display:inline;fill:#38b6ff;fill-opacity:1;stroke:#7c827f;stroke-width:1.94496;stroke-opacity:0"
         d="m 319.16602,172.86133 -14.59766,42.18945 v 15.44727 h 0.26953 l 16.96094,-49.07422 16.88086,49.07422 h 6.42187 l 19.43164,-57.63672 h -5.8457 l -16.88672,49.90234 -17.03711,-49.90234 z" />
      <g
         id="g4005"
         transform="translate(259.50819,6.106602)"
         style="display:inline">
        <path
           style="fill:#38b6ff;fill-opacity:1;stroke:#7c827f;stroke-width:4.53543;stroke-opacity:0"
           d="m 82.422134,246.5593 c -1.155223,-0.11138 -2.34997,0.36042 -3.124498,1.22474 -0.774528,0.86432 -1.113029,2.09854 -0.897172,3.23887 0.169337,0.89457 0.650917,1.69937 1.193243,2.43068 1.817609,2.451 4.35038,4.25273 6.67332,6.23137 3.034214,2.5845 5.756474,5.51999 8.264311,8.61787 0.427011,0.52748 0.849783,1.06179 1.342435,1.52855 0.492652,0.46675 1.062162,0.86725 1.706963,1.07891 0.674528,0.22142 1.416688,0.22583 2.097273,0.0238 0.680581,-0.20204 1.297461,-0.60817 1.761161,-1.14576 0.46369,-0.5376 0.77394,-1.20409 0.89862,-1.90299 0.12467,-0.69891 0.0648,-1.42843 -0.16086,-2.10157 -0.26945,-0.80392 -0.76639,-1.51593 -1.34313,-2.13744 -0.57674,-0.6215 -1.234982,-1.16072 -1.883045,-1.70745 -2.359105,-1.99022 -4.613965,-4.10916 -6.67332,-6.40816 -2.103097,-2.34784 -4.005805,-4.88656 -6.319767,-7.02687 -0.761193,-0.70407 -1.586584,-1.37539 -2.563262,-1.72357 -0.313851,-0.11189 -0.640612,-0.18899 -0.972272,-0.22097 z"
           id="path3521" />
        <path
           style="fill:#38b6ff;fill-opacity:1;stroke:#7c827f;stroke-width:4.53543;stroke-opacity:0"
           d="m 179.17112,292.66769 c 0.88091,-0.75006 1.38558,-1.92174 1.3254,-3.07715 -0.0602,-1.15541 -0.68383,-2.26833 -1.63789,-2.92282 -0.7509,-0.51513 -1.6616,-0.74241 -2.5625,-0.875 -3.01878,-0.44429 -6.08333,0.0702 -9.12499,0.31265 -3.97311,0.31667 -7.97367,0.16695 -11.93751,-0.25007 -0.67492,-0.071 -1.35168,-0.14987 -2.03008,-0.13156 -0.6784,0.0183 -1.36429,0.1378 -1.96991,0.44405 -0.63355,0.32038 -1.16148,0.84204 -1.49987,1.46616 -0.33839,0.62411 -0.48742,1.3475 -0.43517,2.05552 0.0523,0.70803 0.30416,1.3987 0.71022,1.98106 0.40606,0.58236 0.96429,1.05584 1.59983,1.37226 0.759,0.37789 1.61385,0.52992 2.46113,0.56157 0.84727,0.0317 1.694,-0.0525 2.53884,-0.12403 3.07544,-0.26046 6.16811,-0.3552 9.25,-0.18749 3.1473,0.17127 6.2877,0.61596 9.43753,0.49998 1.03647,-0.0382 2.09665,-0.144 3.03124,-0.59374 0.30013,-0.14443 0.5838,-0.32303 0.84376,-0.53125 z"
           id="path3521-2" />
        <path
           style="fill:#38b6ff;fill-opacity:1;stroke:#7c827f;stroke-width:4.53543;stroke-opacity:0"
           d="m 92.27619,292.70612 c 0.880906,-0.75006 1.385578,-1.92174 1.325402,-3.07715 -0.06018,-1.15541 -0.683834,-2.26833 -1.637892,-2.92282 -0.750902,-0.51513 -1.661596,-0.74241 -2.5625,-0.875 -3.018784,-0.44429 -6.083333,0.0702 -9.12499,0.31265 -3.973113,0.31667 -7.973674,0.16695 -11.93751,-0.25007 -0.674924,-0.071 -1.351678,-0.14987 -2.03008,-0.13156 -0.678402,0.0183 -1.364292,0.1378 -1.96991,0.44405 -0.633551,0.32038 -1.161475,0.84204 -1.499869,1.46616 -0.338395,0.62411 -0.487425,1.3475 -0.435174,2.05552 0.05225,0.70803 0.304158,1.3987 0.710221,1.98106 0.406062,0.58236 0.964296,1.05584 1.599832,1.37226 0.758998,0.37789 1.613847,0.52992 2.461125,0.56157 0.847278,0.0317 1.694,-0.0525 2.538845,-0.12403 3.075444,-0.26046 6.168106,-0.3552 9.25,-0.18749 3.147303,0.17127 6.287704,0.61596 9.43753,0.49998 1.036468,-0.0382 2.096653,-0.144 3.03124,-0.59374 0.300129,-0.14443 0.583795,-0.32303 0.84376,-0.53125 z"
           id="path3521-2-8" />
        <path
           style="fill:#38b6ff;fill-opacity:1;stroke:#7c827f;stroke-width:4.53543;stroke-opacity:0"
           d="m 103.21135,312.21296 c 0.19268,-1.14082 -0.17386,-2.36278 -0.96264,-3.20919 -0.78878,-0.84641 -1.9819,-1.29808 -3.133451,-1.18619 -0.906341,0.0881 -1.750069,0.49934 -2.525428,0.97686 -2.598101,1.6001 -4.614965,3.96408 -6.789181,6.10493 -2.840033,2.79645 -6.000874,5.25327 -9.305405,7.48172 -0.562664,0.37944 -1.131778,0.75404 -1.639699,1.20413 -0.50792,0.45009 -0.956533,0.98251 -1.223606,1.6064 -0.279391,0.65266 -0.348484,1.39162 -0.206536,2.08724 0.141949,0.69561 0.492767,1.34555 0.987904,1.85434 0.495137,0.5088 1.132063,0.87596 1.817458,1.06106 0.685396,0.1851 1.417371,0.18898 2.107613,0.0229 0.824331,-0.19839 1.576906,-0.63142 2.246303,-1.15179 0.669396,-0.52037 1.263944,-1.12908 1.865141,-1.72695 2.188506,-2.17638 4.496723,-4.23688 6.965395,-6.08941 2.521068,-1.89184 5.212602,-3.5698 7.550952,-5.68332 0.76945,-0.69547 1.51356,-1.45802 1.94041,-2.40328 0.13708,-0.30356 0.23957,-0.62271 0.30488,-0.94932 z"
           id="path3521-2-5" />
        <path
           style="fill:#38b6ff;fill-opacity:1;stroke:#7c827f;stroke-width:4.53543;stroke-opacity:0"
           d="m 164.48723,250.85223 c 0.12067,-1.15067 -0.32188,-2.34721 -1.16225,-3.14242 -0.84038,-0.79522 -2.05951,-1.17107 -3.20177,-0.98709 -0.89902,0.1448 -1.71525,0.60825 -2.45909,1.13351 -2.4925,1.76008 -4.35696,4.24604 -6.39246,6.51918 -2.65884,2.96925 -5.65918,5.6197 -8.81726,8.05124 -0.53773,0.41402 -1.0822,0.82362 -1.56086,1.30471 -0.47865,0.4811 -0.89295,1.04064 -1.12032,1.68007 -0.23786,0.66892 -0.26041,1.41076 -0.0751,2.09608 0.18534,0.68533 0.57628,1.31195 1.10239,1.78865 0.5261,0.4767 1.18482,0.80314 1.88049,0.94484 0.69566,0.1417 1.42643,0.0996 2.10488,-0.10952 0.81025,-0.24976 1.53415,-0.72918 2.16955,-1.29056 0.6354,-0.56138 1.19056,-1.20621 1.75303,-1.84065 2.04753,-2.3095 4.22181,-4.51088 6.56929,-6.51476 2.3973,-2.04641 4.97817,-3.89005 7.1792,-6.14623 0.72426,-0.74241 1.41903,-1.55018 1.78568,-2.52038 0.11774,-0.31157 0.2,-0.63653 0.24467,-0.96659 z"
           id="path3521-2-5-2" />
        <path
           style="fill:#38b6ff;fill-opacity:1;stroke:#7c827f;stroke-width:4.53543;stroke-opacity:0"
           d="m 124.04397,232.47651 c -0.75466,-0.87697 -1.92898,-1.37551 -3.08406,-1.30928 -1.15508,0.0662 -2.26472,0.6957 -2.91421,1.65318 -0.51119,0.75359 -0.7337,1.66546 -0.86157,2.56705 -0.42849,3.02107 0.10198,6.08289 0.36031,9.12324 0.33744,3.9714 0.20876,7.97268 -0.1875,11.93864 -0.0675,0.67529 -0.14279,1.35244 -0.12094,2.03074 0.0219,0.6783 0.14494,1.36355 0.45435,1.96756 0.32369,0.63187 0.84811,1.15707 1.47399,1.4922 0.62587,0.33513 1.35003,0.48037 2.05778,0.42442 0.70775,-0.0559 1.39709,-0.31147 1.97732,-0.72058 0.58023,-0.40911 1.05078,-0.96982 1.36387,-1.60701 0.37391,-0.76098 0.52145,-1.61662 0.54865,-2.46406 0.0272,-0.84744 -0.0614,-1.69372 -0.13736,-2.53818 -0.2766,-3.07404 -0.38753,-6.16616 -0.23595,-9.24889 0.15479,-3.14815 0.58303,-6.29083 0.45057,-9.44 -0.0436,-1.03626 -0.15497,-2.09588 -0.60962,-3.02809 -0.146,-0.29936 -0.32609,-0.58207 -0.53567,-0.84093 z"
           id="path3521-0" />
      </g>
    </g>
  </g>
</svg>
